<svg width="166" height="50" viewBox="0 0 166 50" fill="none" xmlns="http://www.w3.org/2000/svg">
<g clip-path="url(#clip0_490_5584)">
<path fill-rule="evenodd" clip-rule="evenodd" d="M102.977 39.1026C93.3665 46.2121 79.3875 50 67.3307 50C50.4395 50 35.2956 43.7646 23.763 33.3917C22.8893 32.5759 23.6465 31.4686 24.7531 32.1097C37.1595 39.3357 52.4781 43.648 68.3209 43.648C78.9798 43.648 90.7454 41.4336 101.579 36.8299C103.21 36.1889 104.55 37.9371 102.977 39.1026Z" fill="#FF9900"/>
<path fill-rule="evenodd" clip-rule="evenodd" d="M106.995 34.4982C105.772 32.9248 98.8409 33.7407 95.7538 34.1486C94.8219 34.2651 94.6472 33.4493 95.5209 32.8665C101.054 28.9621 110.082 30.1276 111.131 31.4097C112.179 32.6917 110.839 41.7826 105.656 46.0949C104.84 46.7359 104.083 46.3863 104.432 45.5122C105.597 42.5984 108.218 36.1299 106.995 34.4982Z" fill="#FF9900"/>
<path fill-rule="evenodd" clip-rule="evenodd" d="M95.9305 5.47782V1.68997C95.9305 1.10722 96.3382 0.757571 96.8624 0.757571H113.754C114.278 0.757571 114.744 1.16549 114.744 1.68997V4.89507C114.744 5.41954 114.278 6.11884 113.462 7.28433L104.726 19.7551C107.987 19.6968 111.424 20.163 114.336 21.7947C114.977 22.1444 115.152 22.7271 115.21 23.2516V27.2725C115.21 27.8553 114.627 28.4963 113.987 28.1467C108.803 25.4078 101.872 25.1164 96.1635 28.2049C95.5811 28.4963 94.9403 27.9136 94.9403 27.3308V23.4847C94.9403 22.9019 94.9404 21.853 95.5811 20.9206L105.716 6.41021H96.9207C96.3965 6.41021 95.9305 6.00229 95.9305 5.47782ZM34.3649 28.9625H29.2393C28.7733 28.9042 28.3656 28.5546 28.3074 28.0884V1.74824C28.3074 1.22377 28.7733 0.815845 29.2975 0.815845H34.0737C34.5979 0.815845 34.9474 1.22377 35.0056 1.68997V5.12817H35.1221C36.3453 1.80652 38.7333 0.233099 41.8786 0.233099C45.0239 0.233099 47.1207 1.80652 48.5186 5.12817C49.7418 1.80652 52.5958 0.233099 55.6246 0.233099C57.7796 0.233099 60.1095 1.10722 61.5656 3.14683C63.1965 5.36127 62.847 8.56638 62.847 11.4218V28.0884C62.847 28.6129 62.381 29.0208 61.8568 29.0208H56.7895C56.2653 28.9625 55.8575 28.5546 55.8575 28.0884V14.1025C55.8575 12.9953 55.974 10.1981 55.741 9.14912C55.3333 7.40088 54.2267 6.87641 52.7123 6.87641C51.4891 6.87641 50.1495 7.69226 49.6253 9.03257C49.101 10.3729 49.1593 12.5873 49.1593 14.1025V28.0884C49.1593 28.6129 48.6933 29.0208 48.1691 29.0208H43.0435C42.5193 28.9625 42.1116 28.5546 42.1116 28.0884V14.1025C42.1116 11.1887 42.5775 6.81814 38.9663 6.81814C35.3551 6.81814 35.4133 11.0139 35.4133 14.1025V28.0884C35.3551 28.5546 34.9474 28.9625 34.3649 28.9625ZM129.305 0.233099C136.935 0.233099 141.071 6.75986 141.071 15.0931C141.071 23.4264 136.528 29.5453 129.305 29.5453C122.083 29.5453 117.773 23.0185 117.773 14.86C117.714 6.64331 121.85 0.233099 129.305 0.233099ZM129.305 5.65264C125.519 5.65264 125.286 10.8391 125.286 14.0442C125.286 17.2493 125.228 24.1257 129.247 24.1257C133.266 24.1257 133.441 18.5896 133.441 15.2097C133.441 12.9953 133.324 10.3146 132.684 8.21673C132.101 6.35194 130.936 5.65264 129.305 5.65264ZM150.914 28.9625H145.789C145.265 28.9042 144.857 28.4963 144.857 28.0301V1.63169C144.915 1.16549 145.323 0.757571 145.847 0.757571H150.623C151.089 0.757571 151.439 1.10722 151.555 1.51514V5.53609H151.672C153.128 1.92306 155.108 0.233099 158.661 0.233099C160.933 0.233099 163.204 1.04894 164.66 3.32166C166 5.41954 166 8.9743 166 11.5384V28.1467C165.942 28.6129 165.534 28.9625 165.01 28.9625H159.884C159.418 28.9042 159.011 28.5546 158.952 28.1467V13.8111C158.952 10.8974 159.302 6.70159 155.749 6.70159C154.526 6.70159 153.361 7.51743 152.778 8.79948C152.079 10.4312 151.963 12.0046 151.963 13.8111V28.0301C151.905 28.5546 151.439 28.9625 150.914 28.9625ZM82.4758 16.3752C82.4758 18.3565 82.534 20.0465 81.5439 21.853C80.7284 23.3099 79.447 24.184 77.9909 24.184C76.0105 24.184 74.8456 22.6688 74.8456 20.4544C74.8456 16.0838 78.7481 15.268 82.4758 15.268V16.3752ZM87.6596 28.9042C87.3102 29.1956 86.8442 29.2539 86.4365 29.0208C84.7474 27.6222 84.3979 26.9229 83.466 25.5826C80.6702 28.438 78.6316 29.3122 75.0203 29.3122C70.7102 29.3122 67.3319 26.6315 67.3319 21.3285C67.3319 17.1328 69.6035 14.3356 72.807 12.937C75.6028 11.7132 79.5053 11.4801 82.4758 11.1305V10.4894C82.4758 9.26567 82.5923 7.80881 81.8351 6.75986C81.1944 5.82747 80.0295 5.41954 78.981 5.41954C77.0007 5.41954 75.2533 6.41021 74.8456 8.5081C74.7291 8.9743 74.4379 9.4405 73.9719 9.4405L69.021 8.91603C68.6133 8.79948 68.1474 8.5081 68.2639 7.86708C69.4288 1.80652 74.8456 0 79.7382 0C82.2428 0 85.5046 0.641021 87.4849 2.56409C89.9895 4.89507 89.7565 8.04191 89.7565 11.4218V19.4055C89.7565 21.7947 90.7467 22.8437 91.6786 24.184C92.0281 24.6502 92.0863 25.2329 91.6786 25.5243C90.5719 26.3984 88.7081 28.0301 87.6596 28.9042ZM15.2021 16.3752C15.2021 18.3565 15.2604 20.0465 14.2702 21.853C13.4547 23.3099 12.1733 24.184 10.7172 24.184C8.73684 24.184 7.57193 22.6688 7.57193 20.4544C7.57193 16.0838 11.4744 15.268 15.2021 15.268V16.3752ZM20.3277 28.9042C19.9782 29.1956 19.5123 29.2539 19.1046 29.0208C17.4154 27.6222 17.066 26.9229 16.134 25.5826C13.3382 28.438 11.2996 29.3122 7.68842 29.3122C3.37825 29.3122 0 26.6315 0 21.3285C0 17.1328 2.27158 14.3356 5.47509 12.937C8.27088 11.7132 12.1733 11.4801 15.1439 11.1305V10.4894C15.1439 9.26567 15.2604 7.80881 14.5032 6.75986C13.8625 5.82747 12.6975 5.41954 11.6491 5.41954C9.66877 5.41954 7.9214 6.41021 7.51368 8.5081C7.39719 8.9743 7.10596 9.4405 6.64 9.4405L1.68912 8.91603C1.2814 8.79948 0.815439 8.5081 0.93193 7.86708C2.09684 1.80652 7.51368 0 12.4063 0C14.9109 0 18.1726 0.641021 20.153 2.56409C22.6575 4.89507 22.4246 8.04191 22.4246 11.4218V19.4055C22.4246 21.7947 23.4147 22.8437 24.3467 24.184C24.6961 24.6502 24.7544 25.2329 24.3467 25.5243C23.24 26.3984 21.3761 28.0301 20.3277 28.9042Z" fill="black"/>
</g>
<defs>
<clipPath id="clip0_490_5584">
<rect width="166" height="50" fill="white"/>
</clipPath>
</defs>
</svg>
