<svg width="190" height="50" viewBox="0 0 190 50" fill="none" xmlns="http://www.w3.org/2000/svg">
<g clip-path="url(#clip0_490_5611)">
<path d="M189.758 8.67075C189.737 8.59992 189.717 8.52909 189.687 8.45825C172.95 8.46659 156.217 8.45825 139.487 8.46659C139.446 8.51659 139.417 8.56659 139.408 8.62909C139.408 21.6083 139.408 34.5791 139.4 47.5624C139.504 48.2541 139.887 48.8832 140.396 49.3582C140.417 49.3666 140.467 49.3708 140.487 49.3791C140.75 49.6541 141.125 49.7874 141.475 49.9166C141.737 49.9041 141.992 50.0166 142.254 49.9874H163.025C163.221 49.9791 163.429 50.0166 163.617 49.9374C163.625 49.9083 163.629 49.8583 163.637 49.8333C163.646 49.7999 163.65 49.7208 163.658 49.6791C164.104 47.1916 164.533 44.6999 165.008 42.2124L165.05 41.8957C163.129 41.8874 161.2 41.8957 159.279 41.8874C158.812 41.8749 158.333 41.8874 157.867 41.8291C157.067 41.7958 156.262 41.8208 155.462 41.7458C154.475 41.7458 153.492 41.6541 152.5 41.6541C151.721 41.5749 150.937 41.6041 150.154 41.5707C149.646 41.5082 149.121 41.5374 148.608 41.5124C147.767 41.4208 146.912 41.4832 146.071 41.3916C145.179 41.3999 144.292 41.3207 143.4 41.2999C143.408 41.2916 143.412 41.2666 143.412 41.2582C143.708 41.2666 144 41.2458 144.296 41.2374C144.954 41.1541 145.617 41.2082 146.275 41.1166C146.958 41.1166 147.637 41.0249 148.325 41.0249C148.933 40.9416 149.546 40.9916 150.154 40.9041C150.867 40.9041 151.567 40.8124 152.279 40.8041C152.867 40.7249 153.458 40.7708 154.046 40.6916C154.729 40.6999 155.408 40.5916 156.096 40.5999C156.767 40.5208 157.454 40.5416 158.125 40.4708C158.062 40.2083 158.012 39.9499 157.954 39.6874C157.904 39.5249 157.708 39.5583 157.579 39.5374C156.046 39.3166 154.521 39.0999 152.992 38.8874C153.092 38.8082 153.225 38.8458 153.337 38.8291C154.525 38.7374 155.704 38.6333 156.892 38.5458C157.158 38.5333 157.421 38.4832 157.692 38.4749C157.571 38.1082 157.5 37.7041 157.337 37.3666C154.8 36.9791 152.262 36.6333 149.733 36.2166C150.392 36.1124 151.054 36.0624 151.712 35.9916L151.771 35.9707C153.871 35.7499 155.975 35.5041 158.075 35.2999C160.737 35.2874 163.396 35.2916 166.058 35.2999C166.142 35.2874 166.292 35.3291 166.304 35.2083C166.525 34.0624 166.733 32.9208 166.954 31.7749C167.258 30.1833 167.737 28.6166 168.479 27.1666C169.646 24.8333 171.487 22.8582 173.737 21.5416C175.837 20.3124 178.267 19.7166 180.683 19.6041C181.467 19.5333 182.258 19.5541 183.037 19.6541C183.546 19.7749 184.071 19.9166 184.471 20.2624C184.804 20.5291 185 20.9249 185.15 21.3207C185.475 22.2624 185.658 23.2374 185.812 24.2166C185.821 24.6124 185.892 25.0583 185.679 25.4166C185.483 25.7708 185.087 25.9374 184.712 26.0458C183.35 26.3999 181.921 26.0666 180.558 26.3999C179.433 26.6416 178.387 27.2624 177.675 28.1582C176.833 29.2041 176.387 30.5041 176.142 31.8041C175.95 32.9624 175.712 34.1208 175.521 35.2874C176.862 35.2958 178.212 35.2791 179.562 35.2957C180.1 35.2957 180.65 35.5916 180.871 36.0999C181.154 36.7499 181.092 37.4832 181 38.1707C180.887 38.9416 180.704 39.7041 180.358 40.4124C180.067 41.0124 179.587 41.5624 178.929 41.7749C178.592 41.9083 178.221 41.8791 177.862 41.8791C176.675 41.8791 175.487 41.8916 174.3 41.8791C174.108 42.7499 173.983 43.6374 173.812 44.5208C173.5 46.2374 173.196 47.9624 172.887 49.6874C172.879 49.7458 172.875 49.8624 172.875 49.9291C173.433 49.9582 173.992 49.9291 174.55 49.9416C178.692 49.9416 182.837 49.9332 186.987 49.9416C187.433 49.9541 187.883 49.8499 188.275 49.6291C188.508 49.5457 188.65 49.3374 188.854 49.2249C189.05 49.1124 189.108 48.8791 189.279 48.7291C189.462 48.4041 189.654 48.0666 189.667 47.6833C189.687 47.6833 189.746 47.6749 189.771 47.6707C189.75 34.6708 189.771 21.6707 189.758 8.67075Z" fill="url(#paint0_linear_490_5611)" stroke="#FCD109" stroke-width="0.03" stroke-miterlimit="1.19"/>
<path d="M145.996 0.120901C146.596 -0.0707655 147.225 0.0584012 147.842 0.0167345C159.379 0.0250679 170.917 0.0167345 182.454 0.0167345C183.138 -0.0124321 183.742 0.375073 184.375 0.575073C184.883 0.779239 185.413 0.941734 185.921 1.16257C186.025 1.20423 186.104 1.29591 186.183 1.37507C186.175 2.30841 186.183 3.24591 186.183 4.18757C186.192 4.43341 186.15 4.68757 186.233 4.92924C186.383 4.95007 186.458 5.06257 186.558 5.15424C187.025 5.36674 187.421 5.71257 187.846 5.9959C188.483 6.45007 189.158 6.84173 189.783 7.3084C189.813 7.49173 189.792 7.68341 189.733 7.85424C189.671 8.05007 189.713 8.26257 189.692 8.46257C172.954 8.4709 156.221 8.46257 139.492 8.4709C139.458 8.23757 139.521 8.00424 139.421 7.78757C139.408 7.60424 139.342 7.36257 139.521 7.23757C140.229 6.74173 140.975 6.2959 141.667 5.77507C142.096 5.50007 142.513 5.21674 142.933 4.9334C143.017 4.79174 142.992 4.61674 142.992 4.4584C142.992 3.4334 142.992 2.40841 143 1.38341C143.242 1.07091 143.658 1.03757 143.988 0.883402C144.658 0.629235 145.338 0.383403 146 0.129236M146.042 0.250073C145.138 0.595906 144.225 0.929236 143.321 1.27507C143.2 1.2959 143.138 1.40424 143.075 1.4959C143.083 1.55424 143.088 1.65007 143.088 1.70841C143.079 2.55424 143.088 3.40424 143.079 4.25007C143.088 4.46257 143.058 4.67507 143.138 4.86673C143.046 4.9584 142.946 5.05007 142.833 5.1209C141.808 5.7834 140.821 6.50424 139.796 7.16257C139.621 7.26674 139.421 7.4084 139.479 7.64174C139.446 7.7709 139.508 7.87507 139.642 7.83757C141.858 7.82507 144.071 7.85007 146.292 7.81673C149.592 7.81673 152.883 7.82507 156.183 7.81673L156.233 7.79591C156.383 7.82924 156.529 7.81673 156.683 7.81673C162.663 7.81673 168.638 7.82507 174.621 7.81673C176.5 7.82507 178.388 7.81673 180.275 7.81673C183.383 7.81673 186.5 7.8459 189.608 7.82923C189.7 7.8084 189.729 7.74591 189.692 7.63341C189.683 7.52091 189.725 7.36673 189.608 7.2959C189.113 7.06257 188.692 6.70424 188.217 6.42091C188.046 6.27924 187.829 6.20007 187.7 6.01257C187.213 5.73757 186.758 5.3959 186.279 5.0959C186.188 5.03757 186.117 4.9459 186.038 4.8709C186.079 4.7209 186.096 4.55841 186.096 4.40424C186.088 3.50841 186.096 2.6084 186.088 1.71257C186.108 1.5709 186.1 1.40841 185.975 1.31674C185.129 1.01257 184.288 0.687568 183.446 0.375068C183.183 0.245901 182.896 0.17924 182.613 0.133407H146.5C146.346 0.14174 146.196 0.216738 146.042 0.254238V0.250073Z" fill="#F8F3B5"/>
<path d="M145.996 0.120901C146.596 -0.0707655 147.225 0.0584012 147.842 0.0167345C159.379 0.0250679 170.917 0.0167345 182.454 0.0167345C183.138 -0.0124321 183.742 0.375073 184.375 0.575073C184.883 0.779239 185.413 0.941734 185.921 1.16257C186.025 1.20423 186.104 1.29591 186.183 1.37507C186.175 2.30841 186.183 3.24591 186.183 4.18757C186.192 4.43341 186.15 4.68757 186.233 4.92924C186.383 4.95007 186.458 5.06257 186.558 5.15424C187.025 5.36674 187.421 5.71257 187.846 5.9959C188.483 6.45007 189.158 6.84173 189.783 7.3084C189.813 7.49173 189.792 7.68341 189.733 7.85424C189.671 8.05007 189.713 8.26257 189.692 8.46257C172.954 8.4709 156.221 8.46257 139.492 8.4709C139.458 8.23757 139.521 8.00424 139.421 7.78757C139.408 7.60424 139.342 7.36257 139.521 7.23757C140.229 6.74174 140.975 6.2959 141.667 5.77507C142.096 5.50007 142.513 5.21674 142.933 4.9334C143.017 4.79174 142.992 4.61674 142.992 4.4584C142.992 3.4334 142.992 2.40841 143 1.38341C143.242 1.07091 143.658 1.03757 143.988 0.883402C144.658 0.629235 145.338 0.383403 146 0.129236M146.042 0.250073C145.138 0.595907 144.225 0.929236 143.321 1.27507C143.2 1.2959 143.138 1.40424 143.075 1.4959C143.083 1.55424 143.088 1.65007 143.088 1.70841C143.079 2.55424 143.088 3.40424 143.079 4.25007C143.088 4.46257 143.058 4.67507 143.138 4.86673C143.046 4.9584 142.946 5.05007 142.833 5.1209C141.808 5.7834 140.821 6.50424 139.796 7.16257C139.621 7.26674 139.421 7.4084 139.479 7.64174C139.446 7.7709 139.508 7.87507 139.642 7.83757C141.858 7.82507 144.071 7.85007 146.292 7.81673C149.592 7.81673 152.883 7.82507 156.183 7.81673L156.233 7.79591C156.383 7.82924 156.529 7.81673 156.683 7.81673C162.663 7.81673 168.638 7.82507 174.621 7.81673C176.5 7.82507 178.388 7.81673 180.275 7.81673C183.383 7.81673 186.5 7.8459 189.608 7.82923C189.7 7.8084 189.729 7.74591 189.692 7.63341C189.683 7.52091 189.725 7.36673 189.608 7.2959C189.113 7.06257 188.692 6.70424 188.217 6.42091C188.046 6.27924 187.829 6.20007 187.7 6.01257C187.213 5.73757 186.758 5.3959 186.279 5.0959C186.188 5.03757 186.117 4.9459 186.038 4.8709C186.079 4.7209 186.096 4.55841 186.096 4.40424C186.088 3.50841 186.096 2.6084 186.088 1.71257C186.108 1.5709 186.1 1.40841 185.975 1.31674C185.129 1.01257 184.288 0.687568 183.446 0.375068C183.183 0.245901 182.896 0.17924 182.613 0.133407H146.5C146.346 0.14174 146.196 0.216738 146.042 0.254238V0.250073Z" stroke="#F8F3B5" stroke-width="0.03" stroke-miterlimit="1.19"/>
<path d="M143.084 1.6958C143.704 1.9583 144.371 2.10413 145 2.3583C145.338 2.49163 145.446 2.8583 145.592 3.1583C145.442 3.3083 145.267 3.42496 145.092 3.54163C144.442 3.97913 143.779 4.40413 143.134 4.85413C143.054 4.66246 143.084 4.44996 143.075 4.23746C143.084 3.39163 143.075 2.54163 143.084 1.6958ZM184.171 2.3583C184.8 2.11247 185.459 1.94163 186.088 1.6958C186.096 2.59163 186.088 3.49163 186.096 4.38746C186.096 4.54163 186.084 4.70413 186.038 4.85413C185.488 4.4708 184.929 4.11246 184.379 3.73746C184.113 3.54163 183.813 3.39163 183.575 3.14996C183.725 2.85413 183.838 2.49163 184.175 2.3583H184.171Z" fill="#F7B402" stroke="#F7B402" stroke-width="0.03" stroke-miterlimit="1.19"/>
<path d="M153.867 2.65005C154.646 2.46671 155.513 3.15838 155.45 3.97088C155.459 4.77088 154.617 5.42088 153.846 5.23755C153.534 5.13338 153.238 4.97088 153.046 4.69171C152.8 4.31671 152.742 3.81671 152.942 3.40421C153.084 3.00838 153.463 2.74171 153.867 2.65005ZM174.025 3.09588C174.35 2.73754 174.867 2.52921 175.346 2.65838C175.704 2.76255 176.059 2.99588 176.217 3.35004C176.529 3.95838 176.288 4.77921 175.679 5.09588C175.142 5.39171 174.463 5.25005 174.054 4.82088C173.638 4.34588 173.609 3.57088 174.025 3.09588Z" fill="#BDA727" stroke="#BDA727" stroke-width="0.03" stroke-miterlimit="1.19"/>
<path d="M145.087 3.54155C145.262 3.42905 145.442 3.30822 145.587 3.15822L145.637 3.20822C145.687 3.57488 145.65 3.94988 145.667 4.31655C145.646 5.42072 145.687 6.52905 145.637 7.62905C143.583 7.62905 141.525 7.61655 139.471 7.62905C139.412 7.39572 139.612 7.25405 139.787 7.14988C140.812 6.49155 141.8 5.77071 142.825 5.10821C142.937 5.03738 143.037 4.94571 143.129 4.85405C143.771 4.39988 144.437 3.97905 145.087 3.54155ZM183.496 3.39988C183.496 3.30822 183.517 3.22905 183.567 3.15405C183.808 3.39572 184.104 3.54155 184.371 3.74155C184.921 4.11655 185.479 4.47488 186.029 4.85822C186.108 4.93738 186.179 5.02905 186.271 5.08322C186.75 5.38738 187.204 5.72488 187.692 5.99988C187.821 6.19155 188.037 6.26655 188.208 6.40822C188.683 6.69155 189.104 7.04988 189.6 7.28321C189.721 7.35405 189.679 7.50821 189.683 7.62071C187.629 7.62905 185.579 7.61238 183.521 7.62905C183.487 7.34572 183.508 7.06238 183.5 6.78738C183.5 5.65821 183.487 4.52488 183.492 3.39571L183.496 3.39988Z" fill="#F7E62D" stroke="#F7E62D" stroke-width="0.03" stroke-miterlimit="1.19"/>
<path d="M189.688 7.62502C187.633 7.63335 185.583 7.61669 183.525 7.63335C183.492 7.35002 183.513 7.06669 183.504 6.79169C183.504 5.66252 183.492 4.52919 183.496 3.40002C183.496 3.30835 183.517 3.22919 183.567 3.15419C183.717 2.85836 183.829 2.49585 184.167 2.36252C184.796 2.11668 185.454 1.94585 186.083 1.70002C186.104 1.55835 186.096 1.39585 185.971 1.30419C185.125 1.00002 184.283 0.675017 183.442 0.362517C183.179 0.23335 182.892 0.166683 182.608 0.12085H146.496C146.342 0.129183 146.192 0.204186 146.038 0.241686C145.133 0.58752 144.221 0.92085 143.317 1.26668C143.196 1.28752 143.133 1.39586 143.071 1.48752C143.079 1.54586 143.083 1.64169 143.083 1.70002C143.704 1.96252 144.371 2.10835 145 2.36252C145.338 2.49585 145.446 2.86252 145.592 3.16252L145.642 3.21252C145.692 3.57919 145.654 3.95418 145.671 4.32085C145.65 5.42502 145.692 6.53335 145.642 7.63335C143.588 7.63335 141.529 7.62085 139.475 7.63335C139.442 7.76252 139.504 7.86668 139.638 7.82918C141.854 7.81668 144.067 7.84169 146.288 7.80835C149.588 7.80835 152.879 7.81669 156.179 7.80835L156.229 7.78752C156.379 7.82085 156.525 7.80835 156.679 7.80835C162.658 7.80835 168.633 7.81669 174.617 7.80835C176.496 7.81669 178.383 7.80835 180.271 7.80835C183.379 7.80835 186.496 7.83752 189.604 7.82085C189.696 7.80002 189.725 7.73752 189.688 7.62502ZM152.938 3.40835C153.079 3.01252 153.458 2.74585 153.863 2.65418C154.642 2.47085 155.508 3.16252 155.446 3.97502C155.454 4.77502 154.613 5.42502 153.842 5.24169C153.529 5.13752 153.233 4.97502 153.042 4.69585C152.796 4.32085 152.738 3.82085 152.938 3.40835ZM174.021 3.09585C174.346 2.73752 174.863 2.52919 175.342 2.65835C175.7 2.76252 176.054 2.99585 176.213 3.35002C176.525 3.95835 176.283 4.77918 175.675 5.09585C175.138 5.39168 174.458 5.25002 174.05 4.82086C173.633 4.34586 173.604 3.57085 174.021 3.09585Z" fill="url(#paint1_radial_490_5611)" stroke="#FCD109" stroke-width="0.03" stroke-miterlimit="1.19"/>
<path d="M175.825 10.7292C175.925 10.75 175.309 10.1375 175.429 10.1125C175.542 10.125 175.971 9.79586 176.488 10.0667C177.004 10.3375 176.879 10.975 176.817 11.2084C176.746 11.4875 176.567 11.6667 176.425 11.8084C176.346 11.8709 176.175 11.9709 176.067 11.9625C176.129 11.6167 175.925 11.5584 175.913 11.2084L175.821 10.7292H175.825Z" fill="url(#paint2_linear_490_5611)" stroke="#FCD109" stroke-width="0.03" stroke-miterlimit="1.19"/>
<path d="M153.238 11.1124C153.225 11.4666 153.017 11.5207 153.084 11.8666C152.979 11.8749 152.804 11.7749 152.725 11.7124C152.584 11.5707 152.404 11.3916 152.334 11.1124C152.275 10.8749 152.146 10.2416 152.663 9.97072C153.179 9.69989 153.609 10.0332 153.721 10.0166C153.842 10.0457 153.229 10.6541 153.325 10.6332L153.234 11.1124H153.238Z" fill="url(#paint3_linear_490_5611)" stroke="#FCD109" stroke-width="0.03" stroke-miterlimit="1.19"/>
<path d="M174.9 15.2543C175.008 15.1626 175.075 15.1626 175.217 15.1626C174.371 17.0001 173.379 18.8376 171.892 20.2668C171.733 20.4084 171.567 20.5418 171.388 20.6626C171.217 20.7876 171.05 20.9043 170.883 21.0251C170.721 21.1376 170.558 21.2501 170.4 21.3709C169.996 21.5918 169.646 21.8959 169.2 22.0293C168.388 22.4168 167.513 22.6793 166.629 22.8626C166.283 22.9209 165.929 23.0043 165.575 23.0126C165.138 23.1418 164.671 23.0459 164.225 23.0751C163.979 23.1168 163.758 22.9751 163.517 23.0043C163.308 22.9751 163.1 22.9376 162.892 22.9001C162.683 22.8584 162.475 22.8084 162.267 22.7501C159.029 21.7376 155.85 19.2668 154.921 15.9209C154.879 15.6959 154.858 15.4668 154.858 15.2376C154.958 15.4334 155.058 15.6334 155.167 15.8251C156.483 18.7001 159.1 20.9584 162.188 21.6418C162.438 21.7543 162.708 21.7168 162.95 21.8168C163.171 21.8168 163.379 21.8084 163.592 21.8793C164.321 21.8918 165.046 21.8876 165.775 21.8876C165.875 21.8959 165.967 21.8459 166.067 21.8251C167.279 21.7834 168.467 21.4543 169.575 20.9501C169.796 20.8501 170.013 20.7418 170.229 20.6293C170.417 20.5293 170.6 20.4251 170.779 20.3084C170.954 20.1959 171.125 20.0751 171.288 19.9501C172.596 18.9126 173.725 17.5709 174.496 16.0293C174.642 15.7501 174.775 15.4959 174.892 15.2626L174.9 15.2543Z" fill="#BDA727" stroke="#BDA727" stroke-width="0.03" stroke-miterlimit="1.19"/>
<path d="M173.746 21.5374C175.846 20.3082 178.275 19.7124 180.692 19.5999C181.475 19.5291 182.267 19.5499 183.046 19.6499C183.554 19.7707 184.079 19.9124 184.479 20.2582C184.275 20.2707 184.075 20.1791 183.871 20.1541C183.292 20.0416 182.692 20.0832 182.104 20.0707C180.4 20.0707 178.683 20.2041 177.038 20.6707C176.175 20.9332 175.313 21.2374 174.529 21.6874C173.171 22.4374 171.95 23.4249 170.963 24.6124C169.196 26.6416 168.158 29.2124 167.654 31.8332C167.413 33.2374 167.138 34.6374 166.921 36.0499C166.567 36.0832 166.208 36.0624 165.854 36.0624C164.3 36.0541 162.746 36.0499 161.192 36.0332C160.858 36.0457 160.533 35.9707 160.204 35.9916C157.379 36.0041 154.55 35.9832 151.725 35.9832L151.783 35.9624C153.883 35.7416 155.988 35.4957 158.088 35.2916C160.75 35.2791 163.408 35.2832 166.071 35.2916C166.154 35.2791 166.304 35.3207 166.317 35.1999C166.538 34.0541 166.746 32.9124 166.967 31.7666C167.271 30.1791 167.75 28.6082 168.492 27.1582C169.658 24.8249 171.5 22.8499 173.75 21.5332L173.746 21.5374Z" fill="#0D69B3" stroke="#0D69B3" stroke-width="0.03" stroke-miterlimit="1.19"/>
<path d="M177.042 20.6667C178.688 20.2 180.404 20.0667 182.108 20.0667C182.696 20.0792 183.296 20.0375 183.875 20.15C184.079 20.1791 184.279 20.2708 184.483 20.2541C184.817 20.5208 185.013 20.9166 185.163 21.3125C185.488 22.2541 185.671 23.2292 185.825 24.2083C185.833 24.6042 185.904 25.05 185.692 25.4083C185.496 25.7625 185.1 25.9291 184.725 26.0375C183.363 26.3916 181.933 26.0583 180.571 26.3916C179.446 26.6333 178.4 27.2541 177.688 28.15C176.846 29.1958 176.4 30.4958 176.154 31.7958C175.963 32.9541 175.725 34.1125 175.533 35.2792C175.45 35.5417 175.4 35.825 175.35 36.1C176.683 36.1208 178.021 36.1 179.354 36.1125C179.863 36.1 180.371 36.125 180.879 36.0916C181.163 36.7416 181.1 37.475 181.008 38.1625C180.896 38.9333 180.713 39.6958 180.367 40.4041C180.075 41.0041 179.596 41.5541 178.938 41.7666C178.6 41.9 178.229 41.8708 177.871 41.8708C176.683 41.8708 175.496 41.8833 174.308 41.8708C174.117 42.7416 173.992 43.6291 173.821 44.5125C173.508 46.2291 173.204 47.9542 172.896 49.6792C172.888 49.7375 172.883 49.8541 172.883 49.9208V49.9291C169.796 49.9291 166.717 49.9375 163.629 49.9291C163.638 49.9 163.642 49.85 163.65 49.825C163.658 49.7916 163.663 49.7125 163.671 49.6708C163.679 49.7291 163.683 49.8333 163.692 49.8833C163.883 49.9041 164.229 50.0042 164.279 49.7292C164.758 47.1292 165.204 44.5166 165.7 41.9125C165.508 41.8708 165.313 41.8708 165.113 41.9042C165.083 42.0042 165.054 42.1 165.021 42.2L165.063 41.8833C163.142 41.875 161.213 41.8833 159.292 41.875C158.825 41.8625 158.346 41.875 157.879 41.8166C157.079 41.7833 156.275 41.8083 155.475 41.7333C154.488 41.7333 153.504 41.6416 152.513 41.6416C151.733 41.5625 150.95 41.5916 150.167 41.5583C149.658 41.4958 149.133 41.525 148.621 41.5C147.779 41.4083 146.925 41.4708 146.083 41.3791C145.192 41.3875 144.304 41.3083 143.413 41.2875C143.421 41.2791 143.425 41.2541 143.425 41.2458C143.721 41.2541 144.013 41.2333 144.308 41.225C144.967 41.1416 145.629 41.1958 146.288 41.1041C146.971 41.1041 147.65 41.0125 148.338 41.0125C148.946 40.9291 149.558 40.9792 150.167 40.8917C150.879 40.8917 151.579 40.8 152.292 40.7916C152.879 40.7125 153.471 40.7583 154.058 40.6791C154.742 40.6875 155.421 40.5791 156.108 40.5875C156.779 40.5083 157.467 40.5292 158.138 40.4583C158.075 40.1958 158.025 39.9375 157.967 39.675C157.917 39.5125 157.721 39.5458 157.592 39.525C156.058 39.3041 154.533 39.0875 153.004 38.875C153.104 38.7958 153.238 38.8333 153.35 38.8167C154.538 38.725 155.717 38.6167 156.904 38.5333C157.171 38.5208 157.433 38.4708 157.704 38.4625C157.583 38.0958 157.513 37.6916 157.35 37.3541C154.813 36.9666 152.275 36.6208 149.746 36.2042C150.404 36.1 151.067 36.05 151.725 35.9792C154.55 35.9792 157.379 36 160.204 35.9875C160.538 35.9666 160.863 36.0458 161.192 36.0291C162.746 36.0416 164.3 36.05 165.854 36.0583C166.208 36.0583 166.567 36.0792 166.921 36.0458C167.142 34.6333 167.417 33.2333 167.654 31.8292C168.154 29.2083 169.196 26.6375 170.963 24.6083C171.95 23.4208 173.175 22.4333 174.529 21.6833C175.313 21.2333 176.175 20.9292 177.038 20.6667H177.042Z" fill="#107BD4" stroke="#107BD4" stroke-width="0.03" stroke-miterlimit="1.19"/>
<path d="M175.529 35.2876C176.871 35.2959 178.221 35.2793 179.571 35.2959C180.108 35.2959 180.658 35.5918 180.879 36.1001C180.371 36.1334 179.862 36.1084 179.354 36.1209C178.021 36.1084 176.683 36.1293 175.35 36.1084C175.4 35.8334 175.45 35.5501 175.533 35.2876H175.529ZM165.108 41.9084C165.304 41.8751 165.504 41.8751 165.696 41.9168C165.2 44.5168 164.754 47.1293 164.275 49.7334C164.225 50.0084 163.879 49.9084 163.687 49.8876C163.679 49.8376 163.675 49.7334 163.667 49.6751C164.112 47.1876 164.542 44.6959 165.017 42.2084C165.05 42.1084 165.079 42.0126 165.108 41.9126V41.9084Z" fill="#0D69B3" stroke="#0D69B3" stroke-width="0.03" stroke-miterlimit="1.19"/>
<path d="M176.146 10.9292C176.088 10.825 176.084 10.6958 176.084 10.575L176.025 10.5833C175.942 10.2708 175.679 9.97499 175.342 9.96249C175.088 9.94166 174.771 9.94999 174.621 10.1875C174.338 10.5708 174.471 11.0583 174.459 11.4875C174.459 11.5167 174.467 11.5667 174.467 11.5917C174.467 11.8833 174.434 12.1625 174.383 12.4458C174.342 12.5292 174.321 12.6208 174.321 12.7208C174.2 13.3833 173.959 14.0417 173.638 14.6417C173.575 14.725 173.525 14.8167 173.504 14.9167C173.292 15.2833 173.038 15.625 172.775 15.9625C172.734 15.9958 172.696 16.0417 172.663 16.0833C172.479 16.3083 172.279 16.5 172.075 16.7C172.025 16.7292 171.992 16.7625 171.946 16.7917C171.704 17.025 171.438 17.2458 171.146 17.4208C171.113 17.4417 171.075 17.4708 171.034 17.5C169.225 18.6958 167.029 19.1875 164.888 19.2083C163.071 19.2667 161.242 18.875 159.604 18.0917C159.575 18.0792 159.504 18.05 159.475 18.0333C159.2 17.8833 158.917 17.7583 158.663 17.575C158.604 17.5458 158.55 17.5125 158.488 17.4833C158.225 17.3292 157.979 17.1583 157.746 16.9625C157.667 16.8917 157.584 16.8333 157.5 16.7708C157.246 16.5667 156.983 16.3458 156.767 16.1C156.708 16.0375 156.654 15.9792 156.596 15.925C155.825 15.125 155.225 14.15 154.909 13.0917C154.604 12.25 154.646 11.3333 154.613 10.45C154.359 10.0625 153.821 9.84166 153.396 10.0833C153.221 10.2125 153.2 10.4417 153.063 10.6042C152.842 12.9375 153.842 15.2583 155.429 16.9417C155.429 17 155.459 17.0333 155.509 17.0542C155.792 17.3167 156.067 17.5833 156.35 17.8375C156.4 17.8875 156.454 17.9375 156.521 17.9792C156.804 18.2125 157.108 18.425 157.404 18.6417C157.463 18.6833 157.517 18.7208 157.579 18.7542C157.967 18.9792 158.334 19.25 158.75 19.4042C158.779 19.425 158.829 19.4625 158.854 19.475C160.196 20.1167 161.646 20.5542 163.129 20.6958C163.292 20.6958 163.454 20.7083 163.617 20.7458C164.325 20.7875 165.029 20.7667 165.738 20.7542C167.921 20.5625 170.175 20.0333 171.996 18.7458L172.017 18.775C172.075 18.725 172.121 18.6833 172.179 18.6417C172.471 18.4292 172.75 18.2042 173.034 17.9708C173.096 17.9208 173.167 17.8667 173.229 17.8C173.542 17.4625 173.9 17.15 174.163 16.7625L174.204 16.7833C174.225 16.75 174.263 16.6792 174.284 16.6417C174.525 16.3167 174.742 15.9792 174.954 15.6375C174.967 15.6167 175.004 15.5792 175.017 15.5583L174.988 15.5292C175.009 15.5 175.059 15.4458 175.079 15.4167C175.467 14.625 175.813 13.8 175.934 12.9208C175.983 12.9 176.013 12.8583 176.013 12.8083C176.021 12.525 176.117 12.2583 176.092 11.975C176.154 11.6292 176.163 11.275 176.146 10.9208V10.9292Z" fill="white" stroke="white" stroke-width="0.03" stroke-miterlimit="1.19"/>
<mask id="mask0_490_5611" style="mask-type:luminance" maskUnits="userSpaceOnUse" x="153" y="9" width="24" height="12">
<path d="M176.146 10.9292C176.088 10.825 176.084 10.6958 176.084 10.575L176.025 10.5833C175.942 10.2708 175.679 9.97499 175.342 9.96249C175.088 9.94166 174.771 9.94999 174.621 10.1875C174.338 10.5708 174.471 11.0583 174.459 11.4875C174.459 11.5167 174.467 11.5667 174.467 11.5917C174.467 11.8833 174.434 12.1625 174.383 12.4458C174.342 12.5292 174.321 12.6208 174.321 12.7208C174.2 13.3833 173.959 14.0417 173.638 14.6417C173.575 14.725 173.525 14.8167 173.504 14.9167C173.292 15.2833 173.038 15.625 172.775 15.9625C172.734 15.9958 172.696 16.0417 172.663 16.0833C172.479 16.3083 172.279 16.5 172.075 16.7C172.025 16.7292 171.992 16.7625 171.946 16.7917C171.704 17.025 171.438 17.2458 171.146 17.4208C171.113 17.4417 171.075 17.4708 171.034 17.5C169.225 18.6958 167.029 19.1875 164.888 19.2083C163.071 19.2667 161.242 18.875 159.604 18.0917C159.575 18.0792 159.504 18.05 159.475 18.0333C159.2 17.8833 158.917 17.7583 158.663 17.575C158.604 17.5458 158.55 17.5125 158.488 17.4833C158.225 17.3292 157.979 17.1583 157.746 16.9625C157.667 16.8917 157.584 16.8333 157.5 16.7708C157.246 16.5667 156.983 16.3458 156.767 16.1C156.708 16.0375 156.654 15.9792 156.596 15.925C155.825 15.125 155.225 14.15 154.909 13.0917C154.604 12.25 154.646 11.3333 154.613 10.45C154.359 10.0625 153.821 9.84166 153.396 10.0833C153.221 10.2125 153.2 10.4417 153.063 10.6042C152.842 12.9375 153.842 15.2583 155.429 16.9417C155.429 17 155.459 17.0333 155.509 17.0542C155.792 17.3167 156.067 17.5833 156.35 17.8375C156.4 17.8875 156.454 17.9375 156.521 17.9792C156.804 18.2125 157.108 18.425 157.404 18.6417C157.463 18.6833 157.517 18.7208 157.579 18.7542C157.967 18.9792 158.334 19.25 158.75 19.4042C158.779 19.425 158.829 19.4625 158.854 19.475C160.196 20.1167 161.646 20.5542 163.129 20.6958C163.292 20.6958 163.454 20.7083 163.617 20.7458C164.325 20.7875 165.029 20.7667 165.738 20.7542C167.921 20.5625 170.175 20.0333 171.996 18.7458L172.017 18.775C172.075 18.725 172.121 18.6833 172.179 18.6417C172.471 18.4292 172.75 18.2042 173.034 17.9708C173.096 17.9208 173.167 17.8667 173.229 17.8C173.542 17.4625 173.9 17.15 174.163 16.7625L174.204 16.7833C174.225 16.75 174.263 16.6792 174.284 16.6417C174.525 16.3167 174.742 15.9792 174.954 15.6375C174.967 15.6167 175.004 15.5792 175.017 15.5583L174.988 15.5292C175.009 15.5 175.059 15.4458 175.079 15.4167C175.467 14.625 175.813 13.8 175.934 12.9208C175.983 12.9 176.013 12.8583 176.013 12.8083C176.021 12.525 176.117 12.2583 176.092 11.975C176.154 11.6292 176.163 11.275 176.146 10.9208V10.9292Z" fill="white"/>
</mask>
<g mask="url(#mask0_490_5611)">
<path d="M152.513 10.6874C153.084 10.8666 154.4 10.4166 154.775 10.8291M152.846 12.4291C153.396 12.2374 154.571 11.7874 155.059 12.0541M153.409 14.1749C153.675 14.2624 154.196 13.7958 154.459 13.6583C154.846 13.4541 155.242 13.2999 155.671 13.2333M154.259 16.0124C154.534 15.6249 154.859 15.2999 155.254 15.0249C155.646 14.7499 156.717 14.0208 157.179 14.2708M155.059 17.3333C155.371 17.0874 155.496 16.6499 155.821 16.3916C156.217 16.0791 156.821 16.0208 157.225 15.8291M156.388 18.3124C156.479 17.6291 157.175 16.8041 157.838 16.8624M157.413 19.2666C157.763 19.2333 158.059 18.4499 158.296 18.1833C158.65 17.7874 159.017 17.6624 159.488 17.5249M159.442 20.1166C159.421 19.6208 159.929 18.2041 160.525 18.2791M160.95 20.5874C160.925 20.0041 161.229 18.2458 161.938 18.1833M162.504 21.5291C162.371 20.7124 162.379 19.5291 163.021 18.9374M164.434 21.7166C164.363 21.0374 163.684 19.6583 164.434 19.1249M166.504 21.2458C166.179 20.8708 165.992 19.3958 166.129 18.9833M168.484 20.9124C168.234 20.4583 167.925 20.0333 167.829 19.5083C167.771 19.1958 167.871 18.7458 167.821 18.5083M170.129 20.2041C169.588 19.8499 169.438 18.5499 169.613 17.9916M171.734 19.4999C171.35 18.6749 170.938 18.0374 170.934 17.0958M173.288 17.9916C172.692 17.5916 171.929 16.8583 172.017 16.0624M174.938 16.7208C174.029 16.5208 172.942 15.7083 172.396 14.9791M175.692 15.1666C175.038 15.0249 172.875 14.1833 173.009 13.3291M176.4 13.5166C175.488 13.1833 174.163 12.8833 173.434 12.2458M176.871 12.0083C176.296 12.0583 175.475 11.7791 174.888 11.6791C174.238 11.5666 173.638 11.3499 173.009 11.2083M176.304 10.5499C175.196 10.6166 174.154 10.2374 173.15 9.8916" stroke="#D1D1D1" stroke-width="0.6" stroke-miterlimit="1.19"/>
</g>
<path d="M34.496 13.9458C35.521 13.7917 36.7002 13.6958 37.5668 14.3333C38.1085 14.7375 38.3002 15.475 38.2627 16.1292C38.3002 17.2125 37.8002 18.3708 36.8335 18.9292C35.9835 19.3917 34.9585 19.4292 34.0127 19.3333C33.3752 19.2542 32.7377 18.9083 32.4085 18.3292C31.6752 16.65 32.5835 14.2708 34.496 13.9458ZM3.8585 15.1625C3.91683 14.5833 4.43766 14.0625 5.03766 14.0792C9.50016 14.0792 13.9418 14.1 18.3877 14.0792C18.871 14.0417 19.3918 14.2542 19.6252 14.6792C19.9543 15.2583 19.6627 15.8958 19.6252 16.4958C19.4918 17.3083 19.5293 18.3875 18.5835 18.7C15.3377 18.7958 12.0918 18.7 8.846 18.7375C8.53766 20.7833 8.246 22.8125 7.93766 24.8417C7.93766 24.9208 7.9585 25.0917 7.9585 25.1708C10.3335 25.15 12.7127 25.1708 15.0877 25.15C15.746 25.1125 16.4418 25.6708 16.3835 26.3667C16.3252 27.0833 16.171 27.775 16.0752 28.4917C15.996 28.975 15.6127 29.4208 15.1085 29.5167C12.4627 29.575 9.77517 29.4583 7.12933 29.575C6.70433 32.4917 6.20016 35.4083 5.7585 38.325C5.70016 38.9042 5.23766 39.4083 4.6585 39.425C3.5585 39.4458 2.45433 39.4458 1.35433 39.425C0.637665 39.4458 0.0584984 38.6542 0.254332 37.975C1.4335 30.3625 2.65016 22.7708 3.86683 15.1625H3.8585ZM23.4877 14.1208C24.4918 14.0417 25.5168 14.1 26.521 14.0833C27.1377 14.0458 27.7585 14.5292 27.8168 15.1667C27.8168 15.6708 27.6835 16.1708 27.6252 16.675C26.8127 21.8542 25.9835 27.0292 25.171 32.2083C25.0543 33.0375 24.8418 33.9292 25.0918 34.7792C25.3835 35.6292 26.6752 35.2625 26.9835 36.15C27.1752 36.8667 26.9627 37.6167 26.9043 38.3542C26.846 39.3208 25.746 39.5333 24.9918 39.7458C23.3502 40.0542 21.3585 39.825 20.1835 38.4708C19.3335 37.4875 19.2752 36.0958 19.4502 34.8583C20.4752 28.2917 21.496 21.7208 22.5418 15.1333C22.6002 14.65 22.9877 14.2042 23.4877 14.1292V14.1208ZM61.8335 15.1625C61.8918 14.5833 62.4127 14.0792 62.9918 14.0792H65.9293C66.6627 14.0583 67.2627 14.85 67.0877 15.5458C66.4127 19.8333 65.7168 24.125 65.0418 28.4125C66.0668 28.2583 67.2252 28.0667 67.9377 27.2333C69.1335 25.8792 70.121 24.3167 70.8543 22.675C71.1043 22.0375 71.2418 21.1083 72.071 20.9958C73.171 20.9583 74.2918 20.975 75.3918 20.9958C76.146 20.975 76.7043 21.825 76.4543 22.5208C76.1627 23.5458 75.6835 24.4917 75.1793 25.4C74.0585 27.2167 72.821 29.0125 71.2002 30.4417C71.9168 32.5875 72.821 34.6708 73.6168 36.7792C73.8502 37.475 74.4085 38.2875 73.8877 38.9625C73.2877 39.775 72.1668 39.3667 71.3377 39.4625C70.4668 39.3667 69.2127 39.8083 68.7293 38.825C67.821 36.7208 67.0668 34.5542 66.1418 32.45C65.6002 32.4708 65.0418 32.4875 64.5002 32.4292C64.4627 32.5083 64.3835 32.6625 64.346 32.7375C64.0543 34.6708 63.746 36.6 63.4377 38.5333C63.321 38.9958 62.9543 39.4042 62.4543 39.4417C61.4293 39.4792 60.3877 39.4625 59.346 39.4625C58.9002 39.4625 58.496 39.1708 58.3043 38.7875C58.1127 38.4 58.2252 37.9583 58.2835 37.5333C59.4793 30.075 60.6585 22.6208 61.8377 15.1625H61.8335ZM115.517 17.2667C115.65 16.725 116.175 16.3583 116.713 16.3792C117.483 16.4 118.279 16.3583 119.071 16.4C119.708 16.4208 120.213 17.0583 120.133 17.675C120.017 18.775 119.746 19.8792 119.671 20.9792C120.425 20.9792 121.196 20.9583 121.95 20.9792C122.625 20.9792 123.188 21.675 123.071 22.3333C122.975 22.9333 122.838 23.5125 122.742 24.1125C122.646 24.6167 122.221 25.0208 121.738 25.0958C120.809 25.1542 119.904 25.0583 118.996 25.1542C118.608 27.7417 118.184 30.3292 117.779 32.9208C117.721 33.5208 117.683 34.1958 118.029 34.7167C118.55 35.3542 119.458 35.1208 120.192 35.2C120.771 35.375 121.138 36.0125 121.042 36.5917C120.946 37.25 120.925 37.9042 120.771 38.5417C120.538 39.2583 119.708 39.3917 119.071 39.5667C117.313 40.0292 115.283 40.0292 113.721 39.0083C112.271 38.025 112.042 36.1125 112.196 34.4875C112.6 31.3583 113.238 28.2458 113.588 25.1C113.046 25.1208 112.392 25.1958 111.983 24.7125C111.521 24.2292 111.75 23.5167 111.829 22.9167C111.946 22.2792 111.925 21.45 112.621 21.1C113.179 20.8875 113.817 21.0417 114.417 20.9667C114.783 19.7292 115.133 18.4958 115.517 17.2792V17.2667ZM104.6 23.525C105.817 22.3083 107.283 21.3042 108.967 20.8C109.7 20.4708 110.646 21.0917 110.629 21.9C110.496 22.9625 110.242 24.0042 110.071 25.05C109.992 25.5708 109.55 26.0167 109.029 26.075C107.138 26.4042 105.496 27.5417 104.179 28.8958C103.85 29.3 103.367 29.6875 103.308 30.25C102.904 32.9542 102.479 35.6583 102.054 38.3625C101.996 38.9417 101.496 39.5042 100.896 39.4625H97.9585C97.2835 39.5 96.6835 38.825 96.7627 38.15C97.6127 32.8 98.4627 27.4667 99.2918 22.1167C99.3293 21.575 99.7168 21.0542 100.275 20.9958C100.992 20.9583 101.704 20.975 102.438 20.975C103.017 20.975 103.558 21.4958 103.558 22.0958C103.558 22.925 103.479 23.775 103.463 24.625C103.925 24.3375 104.217 23.8708 104.604 23.525H104.6ZM32.3877 21.0708C33.4293 20.8583 34.5127 21.0333 35.5543 20.975C36.1543 20.8958 36.7918 21.2833 36.8877 21.8833C36.9668 22.425 36.8085 22.9458 36.7543 23.4667C35.9627 28.4333 35.171 33.3958 34.396 38.3625C34.3377 38.925 33.8752 39.4833 33.2752 39.4625C32.2335 39.4625 31.1877 39.4833 30.1252 39.4417C29.4668 39.3625 28.9835 38.6125 29.1585 37.975C29.9877 32.8167 30.7793 27.6792 31.6127 22.5208C31.6502 21.9625 31.8043 21.3042 32.3835 21.0708H32.3877ZM94.9002 21.3208C92.021 20.7792 89.0835 20.3917 86.1668 20.6833C83.5585 21.0125 80.9335 22.1917 79.3293 24.3333C77.1085 27.1542 76.3543 30.9417 76.8543 34.4542C77.1252 36.1333 77.8585 37.8333 79.2293 38.8792C80.5043 39.8625 82.2252 40 83.771 39.75C85.9335 39.325 87.771 37.9333 89.2752 36.3875C89.3543 37.0458 89.196 37.7 89.2377 38.3375C89.2752 38.9375 89.8168 39.4958 90.4168 39.4583H92.3877C92.9668 39.4583 93.4502 38.9167 93.4877 38.3583C94.3168 33.125 95.1502 27.9083 95.9585 22.6917C96.0752 22.0333 95.5543 21.3958 94.896 21.3208H94.9002ZM89.471 30.4208C88.7002 31.8708 87.6168 33.1833 86.4002 34.3042C85.7043 34.8833 84.8168 35.4833 83.871 35.2917C82.9418 35.1 82.5002 34.1333 82.2877 33.3C81.8043 31.1375 82.2502 28.7792 83.4668 26.9042C84.0085 26.0333 84.8752 25.3792 85.8835 25.1083C87.2918 24.7625 88.7793 24.9333 90.1543 25.3208L90.2335 25.4C90.0585 27.0792 89.7293 28.7417 89.4793 30.4208H89.471ZM56.9793 27.525C56.9585 25.5917 56.4377 23.5667 55.0877 22.1167C54.1585 21.0917 52.771 20.5708 51.4168 20.5917C49.1752 20.5125 47.071 21.6167 45.4293 23.0833C45.0627 23.375 44.8127 23.8 44.4043 24.0292C44.4043 23.3917 44.4627 22.7542 44.4418 22.0958C44.4627 21.4958 43.9002 20.975 43.321 20.975H41.3502C40.7335 20.975 40.2293 21.5167 40.1918 22.1167C38.9752 29.8458 37.7377 37.5708 36.521 45.3C36.346 46.0167 36.9668 46.75 37.7002 46.7292C38.7835 46.7083 39.8835 46.8083 40.946 46.65C41.796 46.4167 41.7752 45.4333 41.9127 44.7167C42.221 43.0167 42.4335 41.3167 42.6293 39.5958C46.4335 40.3292 50.8585 39.8292 53.7002 36.95C56.0168 34.4208 57.1002 30.9208 56.9835 27.525H56.9793ZM51.571 29.475C51.4543 31.2542 50.8168 33.05 49.5793 34.3417C47.9752 35.8667 45.5418 35.6542 43.571 35.1333C43.5335 35.075 43.4752 34.9583 43.4543 34.9C43.7627 33.2208 43.9168 31.5208 44.3043 29.8583C45.3877 28.0792 46.7002 26.2833 48.5752 25.3C49.271 24.9708 50.2168 25.05 50.721 25.6875C51.571 26.75 51.6502 28.1792 51.571 29.475Z" fill="#107BD4" stroke="#107BD4" stroke-width="0.03" stroke-miterlimit="1.19"/>
</g>
<defs>
<linearGradient id="paint0_linear_490_5611" x1="172.474" y1="17.9866" x2="172.474" y2="59.7741" gradientUnits="userSpaceOnUse">
<stop stop-color="#F7E830"/>
<stop offset="1" stop-color="#FDCB06"/>
</linearGradient>
<radialGradient id="paint1_radial_490_5611" cx="0" cy="0" r="1" gradientUnits="userSpaceOnUse" gradientTransform="translate(172.256 37.0467) scale(33.99)">
<stop offset="0.6" stop-color="#F29405"/>
<stop offset="0.74" stop-color="#F7D01E"/>
<stop offset="1" stop-color="#FDCB06"/>
</radialGradient>
<linearGradient id="paint2_linear_490_5611" x1="184.101" y1="19.4955" x2="184.114" y2="21.4742" gradientUnits="userSpaceOnUse">
<stop stop-color="#FADA1C"/>
<stop offset="1" stop-color="#FDCB06"/>
</linearGradient>
<linearGradient id="paint3_linear_490_5611" x1="161.628" y1="19.4003" x2="161.617" y2="21.3791" gradientUnits="userSpaceOnUse">
<stop stop-color="#FADA1C"/>
<stop offset="1" stop-color="#FDCB06"/>
</linearGradient>
<clipPath id="clip0_490_5611">
<rect width="190" height="50" fill="white"/>
</clipPath>
</defs>
</svg>
