<svg width="197" height="161" viewBox="0 0 197 161" fill="none" xmlns="http://www.w3.org/2000/svg">
<path d="M73.3789 85.0844C73.3789 92.9444 76.5443 97.5057 81.7521 97.5057H82.4644C77.2586 97.5057 74.0912 92.9444 74.0912 85.0844C74.1528 84.5281 74.161 58.0927 74.161 51.8194L73.4487 50.4893C73.4487 50.4893 73.4487 84.4522 73.3789 85.0844Z" fill="#FEFFEA"/>
<path d="M110.915 79.5724V80.9251L90.543 42.2778H91.2553L110.915 79.5724Z" fill="#FEFFEA"/>
<path d="M120.791 43.2612H120.237C116.93 43.2612 112.426 45.7882 112.426 53.5065V98.4168H113.138V53.5065C113.138 45.9093 117.498 43.3454 120.789 43.2653V43.2612H120.791Z" fill="#FEFFEA"/>
<path d="M28.3916 43.1548H27.3242V66.5747H28.3916V43.1548Z" fill="#FEFFEA"/>
<path d="M32.9962 97.4627C32.8217 97.4668 32.6431 97.4689 32.4584 97.4689C32.3024 97.4689 32.1525 97.4689 32.0027 97.4648H31.9452C27.4537 97.3724 27.3203 96.0155 27.3203 92.8358V69.5596H28.3877V92.8358C28.3877 95.9129 28.515 97.28 32.5877 97.4484C32.7191 97.4545 32.8546 97.4586 32.9941 97.4627H32.9962Z" fill="#FEFFEA"/>
<path d="M35.2734 42.2432H36.3409C47.1753 42.2432 56.4641 46.7346 56.4641 55.155C56.4641 60.4101 52.531 64.4006 47.0768 66.5766H46.0094C51.4636 64.4006 55.3966 60.4101 55.3966 55.155C55.3966 46.7346 46.11 42.2432 35.2734 42.2432Z" fill="#FEFFEA"/>
<path d="M60.6862 83.645C60.6862 92.1373 53.2963 98.4536 40.4932 98.4536H39.4258C52.2288 98.4536 59.6188 92.1373 59.6188 83.645C59.6188 76.6944 53.7232 71.8232 46.5345 69.561H47.606C54.7968 71.8232 60.6883 76.6944 60.6883 83.645H60.6862Z" fill="#FEFFEA"/>
<path d="M150.048 43.1895H148.98V66.6094H150.048V43.1895Z" fill="#FEFFEA"/>
<path d="M154.652 97.4974C154.478 97.5015 154.299 97.5036 154.115 97.5036C153.959 97.5036 153.809 97.5036 153.659 97.4994H153.601C149.11 97.4071 148.977 96.0502 148.977 92.8705V69.5942H150.044V92.8705C150.044 95.9476 150.171 97.3147 154.244 97.483C154.375 97.4892 154.511 97.4933 154.65 97.4974H154.652Z" fill="#FEFFEA"/>
<path d="M156.93 42.2778H157.997C168.832 42.2778 178.12 46.7693 178.12 55.1897C178.12 60.4448 174.187 64.4353 168.733 66.6112H167.666C173.12 64.4353 177.053 60.4448 177.053 55.1897C177.053 46.7693 167.766 42.2778 156.93 42.2778Z" fill="#FEFFEA"/>
<path d="M182.342 83.6797C182.342 92.172 174.953 98.4883 162.149 98.4883H161.082C173.885 98.4883 181.275 92.172 181.275 83.6797C181.275 76.729 175.379 71.8578 168.191 69.5957H169.262C176.453 71.8578 182.345 76.729 182.345 83.6797H182.342Z" fill="#FEFFEA"/>
<path d="M113.644 13.495C110.947 12.5137 108.169 12.1422 105.312 12.3003C104.16 12.3598 103.006 12.4132 101.869 12.563C100.264 12.7765 98.6526 12.9982 97.076 13.3472C93.2271 14.197 89.526 15.441 86.0938 17.4342C84.1005 18.5858 82.1566 19.7949 80.3153 21.1764C78.4206 22.601 76.6511 24.1488 75.0561 25.8998C73.6458 27.4476 72.3588 29.0857 71.2585 30.8654C70.1562 32.6513 69.2221 34.5152 68.6227 36.5351C68.555 36.765 68.5098 36.8923 68.8321 36.9847C71.9482 37.8489 75.1259 38.2615 78.7182 38.3375C79.2396 38.2943 80.1244 38.2553 81.007 38.1465C82.4173 37.9762 83.8316 37.8037 85.2316 37.5512C87.9433 37.0647 90.5401 36.1903 93.0424 35.0448C95.6145 33.8645 98.0306 32.4152 100.33 30.7669C102.362 29.3135 104.296 27.7432 106.082 26.0065C107.087 25.0294 108.079 24.0359 109.017 22.9951C109.852 22.0673 110.651 21.0984 111.38 20.0823C112.669 18.2779 113.406 16.2149 113.952 14.082C114.038 13.7598 113.972 13.614 113.646 13.4929L113.644 13.495ZM109.263 16.9333C108.52 17.9494 107.757 18.9491 106.989 19.9488C106.658 20.382 106.318 20.811 105.94 21.2072C105.006 22.1925 104.092 23.2025 103.097 24.12C101.479 25.6083 99.761 26.9734 97.9156 28.1804C94.9843 30.0977 91.8538 31.6249 88.5632 32.8094C86.3381 33.6099 84.0657 34.2442 81.7152 34.5768C80.4425 34.7533 79.1596 34.8744 77.8786 35.0017C77.2074 35.0654 76.5279 35.0838 75.8526 35.1228L75.7417 34.9812C75.8772 34.8067 75.9839 34.585 76.1605 34.468C77.9874 33.2671 79.7733 31.9944 81.668 30.9126C85.4513 28.7613 89.2961 26.7168 93.1163 24.6291C93.4899 24.4239 93.8553 24.2104 94.2063 23.9661C87.6395 26.8502 81.1056 29.8206 74.3602 32.327C78.4863 26.7517 83.5874 22.3588 89.8955 19.4192C96.1892 16.4879 102.772 15.0468 109.791 15.7202C109.791 16.219 109.514 16.5823 109.257 16.9313L109.263 16.9333Z" fill="#FEFFEA"/>
<path d="M71.7227 25.6061C72.4699 23.0874 73.3505 20.5871 74.6047 18.2429C75.4792 16.6089 76.4029 14.9913 77.4314 13.4497C78.271 12.1893 79.2542 11.0151 80.256 9.87377C81.1181 8.8905 82.0583 7.96265 83.0334 7.08818C84.538 5.73746 86.172 4.55918 87.9518 3.57796C90.606 2.11639 93.4018 1.03664 96.3496 0.342811C96.9634 0.197065 97.5956 0.127271 98.3387 0C98.4578 0.950427 98.6302 1.84954 98.6713 2.75275C98.7965 5.42955 98.2279 7.99755 97.3452 10.506C97.3 10.6374 97.1728 10.7996 97.0516 10.8324C95.9822 11.1301 94.9045 11.401 93.757 11.7007C94.9804 8.99519 95.4854 6.1788 95.781 3.18793C95.1303 3.43427 94.5678 3.62928 94.0218 3.85508C91.7596 4.79319 89.6063 5.93658 87.6172 7.3694C86.0673 8.48611 84.5688 9.66644 83.1935 11.0007C81.6826 12.4664 80.3237 14.0573 79.1577 15.8042C78.0431 17.4751 77.0886 19.2323 76.4132 21.1311C76.3763 21.2317 76.3331 21.3466 76.2572 21.4164C74.7484 22.8185 73.2314 24.2143 71.7309 25.602L71.7227 25.6061Z" fill="#FEFFEA"/>
<path d="M45.2595 69.5618H34.9362C37.9271 71.3087 39.3435 75.9376 39.3435 83.227C39.3435 94.4679 38.3335 97.1981 32.2348 97.4485C32.0459 97.4547 31.8468 97.4629 31.6477 97.467H31.5902C31.4547 97.4711 31.3193 97.4711 31.1817 97.4711C26.1874 97.4711 26.0457 96.1368 26.0457 92.838V69.5618H9.86382V92.7703C9.86382 95.365 7.89522 97.4711 5.36006 97.4711H1V98.4544H38.1488C50.9518 98.4544 58.3418 92.138 58.3418 83.6458C58.3418 76.6951 52.4463 71.8239 45.2595 69.5618ZM33.9961 42.2437H2.75716V43.1551H6.55477C8.73685 43.1551 9.86176 44.0008 9.86176 46.0351V66.5771H26.0437V43.1571H32.0234C35.2626 43.1571 37.4406 45.9653 37.4406 54.8763C37.4406 61.1557 37.1306 64.902 35.3324 66.5771H44.7299C50.1841 64.4011 54.1172 60.4106 54.1172 55.1555C54.1172 46.7351 44.8305 42.2437 33.994 42.2437H33.9961Z" fill="#FEFFEA"/>
<path d="M120.434 43.2616H119.168C115.861 43.2616 111.357 45.7885 111.357 53.5069V98.4172H98.0594L72.3794 50.4894C72.3794 50.4894 72.3794 84.4523 72.3096 85.0845C72.3096 92.9445 75.475 97.5058 80.6828 97.5058H82.6535V98.4172H62.9531V97.5058H65.205C67.9495 97.5058 71.3961 92.8747 71.3961 84.6637V49.9987C71.3961 45.5073 67.7381 43.1918 65.205 43.1918H64.0082V42.2804H89.4768L110.374 81.9274V53.4371C110.374 47.1926 106.716 43.2616 103.128 43.2616H100.032V42.2783H120.437V43.2616H120.434Z" fill="#FEFFEA"/>
<path d="M166.916 69.5964H156.592C159.583 71.3433 161 75.9723 161 83.2617C161 94.5026 159.99 97.2327 153.891 97.4832C153.702 97.4893 153.503 97.4975 153.304 97.5017H153.246C153.111 97.5058 152.976 97.5057 152.838 97.5057C147.844 97.5057 147.702 96.1715 147.702 92.8727V69.5964H131.52V92.8049C131.52 95.3996 129.551 97.5057 127.016 97.5057H122.656V98.489H159.805C172.608 98.489 179.998 92.1727 179.998 83.6804C179.998 76.7298 174.103 71.8586 166.916 69.5964ZM155.652 42.2783H124.413V43.1897H128.211C130.393 43.1897 131.518 44.0355 131.518 46.0698V66.6117H147.7V43.1918H153.68C156.919 43.1918 159.097 46 159.097 54.911C159.097 61.1904 158.787 64.9367 156.989 66.6117H166.386C171.84 64.4358 175.773 60.4452 175.773 55.1902C175.773 46.7698 166.487 42.2783 155.65 42.2783H155.652Z" fill="#FEFFEA"/>
<path d="M190.429 35.3335C186.785 35.3314 183.864 38.2382 183.852 41.8243C183.839 45.468 186.781 48.2638 190.24 48.3665C193.996 48.4773 196.954 45.3818 197 41.9803C197.045 38.3264 194.085 35.3294 190.429 35.3356V35.3335ZM190.459 47.4345C187.36 47.494 184.765 44.9527 184.771 41.8572C184.777 38.7021 187.302 36.2388 190.476 36.2388C193.666 36.2408 196.158 38.7329 196.166 41.8407C196.174 45.1334 193.364 47.5351 190.457 47.4366L190.459 47.4345Z" fill="#FEFFEA"/>
<path d="M193.505 44.0492C193.392 43.8562 193.294 43.653 193.185 43.4559C192.803 42.7765 192.534 42.0272 191.855 41.4894C192.064 41.3765 192.234 41.2964 192.392 41.1979C193.023 40.7996 193.252 40.2043 193.181 39.49C193.117 38.8536 192.752 38.4 192.169 38.1865C191.721 38.0202 191.233 37.895 190.756 37.8765C189.65 37.8314 188.539 37.8621 187.429 37.8642C187.345 37.8642 187.265 37.8888 187.125 37.9114C187.215 37.9915 187.242 38.0366 187.281 38.051C188.024 38.3548 188.084 38.441 188.084 39.2211C188.084 40.697 188.063 42.1729 188.092 43.6489C188.106 44.3448 187.999 44.9011 187.205 45.0694C187.199 45.0694 187.199 45.0899 187.197 45.1022C187.501 45.2623 190.297 45.2336 190.5 45.0242C189.646 44.9401 189.564 44.3673 189.605 43.7064C189.613 43.5401 189.605 43.3738 189.605 43.2055V41.7439C190.184 41.7049 190.65 41.8034 190.941 42.3002C191.07 42.5137 191.198 42.7292 191.315 42.9468C191.662 43.5955 191.992 44.2524 192.355 44.8908C192.435 45.0283 192.633 45.1741 192.784 45.1823C193.306 45.2172 193.835 45.1967 194.357 45.1905C194.425 45.1905 194.49 45.1494 194.556 45.1289C194.568 45.1002 194.581 45.0694 194.595 45.0406C193.989 44.9483 193.753 44.4905 193.503 44.0492H193.505ZM191.294 40.7524C190.921 41.3724 190.264 41.321 189.625 41.3293V38.3035C190.276 38.2706 190.935 38.2234 191.317 38.8639C191.686 39.4777 191.653 40.153 191.292 40.7545L191.294 40.7524Z" fill="#FEFFEA"/>
<path d="M0 124.481V121.138H8.67966V124.481H6.24508V136.945H8.67966V140.288H0V136.945H2.30832V124.481H0ZM8.07425 124.481V121.138H10.5218C12.5225 121.138 14.0959 121.554 15.2404 122.388C16.3848 123.22 16.9562 124.448 16.9562 126.072C16.9562 127.696 16.3735 128.856 15.2096 129.604C14.0441 130.354 12.3396 130.728 10.0944 130.728H5.03588V129.125H10.0831C10.7565 129.125 11.2988 129.013 11.7099 128.792C12.1211 128.568 12.4222 128.274 12.6116 127.908C12.801 127.542 12.8948 127.145 12.8948 126.716C12.8948 125.977 12.6294 125.42 12.1 125.044C11.5707 124.67 10.8601 124.482 9.96817 124.482H8.07587L8.07425 124.481ZM7.82173 136.945H10.3324C11.3247 136.945 12.1178 136.736 12.7103 136.32C13.3028 135.904 13.6006 135.305 13.6006 134.522C13.6006 134.177 13.5375 133.861 13.4112 133.575C13.285 133.288 13.0875 133.039 12.8188 132.824C12.5501 132.609 12.202 132.443 11.7779 132.325C11.3538 132.207 10.8423 132.149 10.245 132.149H5.03427V130.143H10.245C11.4396 130.143 12.4966 130.232 13.4177 130.409C14.3388 130.585 15.1141 130.867 15.7454 131.254C16.3767 131.641 16.8543 132.146 17.178 132.767C17.5018 133.389 17.6636 134.143 17.6636 135.025C17.6636 136.699 17.1052 137.994 15.9866 138.91C14.8681 139.826 13.3254 140.286 11.357 140.286H7.82496V136.944L7.82173 136.945ZM12.3768 129.955H13.5877V130.839H12.3768V129.955Z" fill="#FEFFEA"/>
<path d="M20.2734 136.05H24.7007V140.289H20.2734V136.05Z" fill="#FEFFEA"/>
<path d="M27.3766 124.481V121.138H34.9717L34.2902 125.869H33.0406V136.946H35.3359V140.289H27.375V136.946H29.672V124.482H27.375L27.3766 124.481ZM41.5956 140.287L30.6448 121.136H34.9847L45.9354 140.287H41.5956ZM40.9513 124.481V121.138H48.9123V124.481H46.6169V140.287H43.0087L41.7348 135.04H43.2483V124.481H40.9513Z" fill="#FEFFEA"/>
<path d="M50.25 136.05H54.6772V140.289H50.25V136.05Z" fill="#FEFFEA"/>
<path d="M72.061 133.69H75.9978V140.288H57.3516V136.945H59.6599V124.481H57.3516V121.138H75.7711V127.736H71.8344V124.481H63.5966V136.945H72.0626V133.69H72.061ZM69.8531 129.123V132.163H61.7286V129.123H69.8531Z" fill="#FEFFEA"/>
<path d="M96.2215 124.481L89.4601 131.987L90.8975 129.515V131.937L89.8761 129.426L96.2717 136.945H97.9115V140.288H88.853V136.945H91.2245L86.8717 131.558L89.0036 132.668H86.5819L88.5131 131.558L84.1733 136.945H86.8345V140.288H78.1289V136.945H79.8075L86.5819 129.363L85.1445 131.836V129.415L86.1546 131.938L79.7703 124.482H78.1305V121.14H87.176V124.482H84.8175L89.1703 129.793L87.0384 128.72H89.4601L87.5176 129.793L91.8574 124.482H89.2075V121.14H97.9115V124.482H96.2215V124.481Z" fill="#FEFFEA"/>
<path d="M99.5781 140.287V136.945H101.886V124.481H99.5781V121.138H105.823V136.945H108.144V140.287H99.5781ZM105.053 132.163V129.123H109.797C110.832 129.123 111.615 128.934 112.151 128.555C112.685 128.176 112.952 127.6 112.952 126.826C112.952 126.002 112.662 125.405 112.081 125.034C111.502 124.663 110.731 124.479 109.773 124.479H105.004V121.136H109.923C112.287 121.136 114.061 121.614 115.247 122.569C116.434 123.524 117.026 124.859 117.026 126.575C117.026 127.273 116.907 127.953 116.667 128.613C116.428 129.274 116.029 129.871 115.476 130.405C114.92 130.939 114.177 131.367 113.248 131.686C112.319 132.006 111.165 132.165 109.786 132.165H105.054L105.053 132.163Z" fill="#FEFFEA"/>
<path d="M128.845 140.603C127.348 140.603 125.98 140.363 124.738 139.884C123.497 139.405 122.427 138.722 121.528 137.835C120.628 136.948 119.934 135.897 119.447 134.682C118.959 133.466 118.715 132.127 118.715 130.664C118.715 129.201 118.961 127.893 119.453 126.69C119.945 125.487 120.638 124.448 121.535 123.574C122.43 122.7 123.498 122.022 124.74 121.542C125.98 121.063 127.349 120.824 128.846 120.824C130.344 120.824 131.71 121.063 132.947 121.542C134.183 122.022 135.252 122.698 136.15 123.574C137.05 124.448 137.745 125.487 138.232 126.69C138.719 127.893 138.964 129.217 138.964 130.664C138.964 132.111 138.719 133.468 138.232 134.682C137.745 135.897 137.05 136.948 136.15 137.835C135.25 138.722 134.182 139.405 132.947 139.884C131.71 140.363 130.344 140.603 128.846 140.603H128.845ZM128.832 136.831C130.027 136.831 131.076 136.569 131.979 136.043C132.882 135.517 133.588 134.792 134.091 133.867C134.596 132.943 134.847 131.875 134.847 130.662C134.847 129.45 134.595 128.416 134.091 127.503C133.586 126.59 132.882 125.877 131.979 125.364C131.074 124.851 130.03 124.595 128.843 124.595C127.657 124.595 126.613 124.853 125.708 125.364C124.803 125.877 124.097 126.59 123.589 127.503C123.081 128.416 122.825 129.468 122.825 130.662C122.825 131.857 123.079 132.942 123.589 133.867C124.097 134.793 124.801 135.519 125.701 136.043C126.601 136.569 127.644 136.831 128.83 136.831H128.832Z" fill="#FEFFEA"/>
<path d="M140.262 124.481V121.138H148.828V124.481H146.507V136.945H148.865V140.288H140.262V136.945H142.57V124.481H140.262ZM147.213 124.481V121.138H150.618C152.998 121.138 154.785 121.596 155.98 122.514C157.174 123.43 157.772 124.709 157.772 126.349C157.772 127.106 157.639 127.788 157.375 128.393C157.11 128.999 156.729 129.518 156.234 129.951C155.738 130.384 155.136 130.718 154.431 130.954V131.383L150.809 132.191H145.523V129.151H150.494C151.191 129.151 151.782 129.062 152.266 128.885C152.75 128.709 153.113 128.444 153.357 128.091C153.602 127.738 153.723 127.291 153.723 126.754C153.723 125.954 153.43 125.376 152.846 125.018C152.261 124.661 151.484 124.482 150.518 124.482H147.213V124.481ZM152.07 129.716C152.76 129.876 153.359 130.15 153.869 130.537C154.377 130.923 154.72 131.36 154.897 131.848L156.839 136.945H158.505V140.288H153.699L151.465 133.538C151.289 133.025 151.08 132.672 150.84 132.477C150.601 132.285 150.241 132.188 149.762 132.188H148.312L152.072 129.714L152.07 129.716Z" fill="#FEFFEA"/>
<path d="M178.864 121.138V128.254H175.243V124.482H171.332V136.947H173.64V140.289H165.087V136.947H167.395V124.482H163.497V128.254H159.863V121.138H178.862H178.864Z" fill="#FEFFEA"/>
<path d="M190.687 140.54C189.063 140.54 187.781 140.203 186.839 139.53C185.897 138.856 185.338 137.869 185.162 136.566H184.581L185.023 134.358C185.225 135.224 185.775 135.913 186.675 136.427C187.575 136.94 188.644 137.195 189.88 137.195C190.89 137.195 191.651 137.014 192.164 136.653C192.678 136.292 192.933 135.748 192.933 135.026C192.933 134.539 192.794 134.128 192.517 133.796C192.239 133.464 191.794 133.192 191.18 132.982C190.567 132.771 189.746 132.603 188.72 132.477C186.996 132.292 185.562 131.93 184.419 131.392C183.274 130.855 182.42 130.149 181.851 129.278C181.283 128.407 181 127.363 181 126.143C181 124.495 181.528 123.202 182.583 122.263C183.639 121.325 185.126 120.856 187.043 120.856C188.093 120.856 188.993 121.005 189.743 121.304C190.491 121.602 191.085 122.051 191.522 122.648C191.959 123.245 192.228 123.99 192.33 124.88H192.898L192.443 127.012C192.266 126.154 191.745 125.466 190.879 124.95C190.013 124.432 188.979 124.174 187.776 124.174C186.91 124.174 186.24 124.33 185.764 124.641C185.288 124.951 185.052 125.398 185.052 125.978C185.052 126.381 185.193 126.743 185.474 127.062C185.756 127.383 186.207 127.66 186.831 127.894C187.452 128.129 188.278 128.328 189.304 128.487C191.086 128.705 192.545 129.076 193.675 129.597C194.806 130.118 195.643 130.813 196.185 131.679C196.728 132.545 197 133.605 197 134.858C197 136.658 196.452 138.053 195.36 139.047C194.267 140.04 192.71 140.537 190.691 140.537L190.687 140.54ZM181.073 140.287V134.358H185.021V140.287H181.073ZM192.44 127.017V121.138H196.389V127.017H192.44Z" fill="#FEFFEA"/>
<path d="M0.3125 160.706V158.665H2.19671V148.801H0.3125V146.759H4.52445V158.665H6.39894V160.706H0.3125ZM4.11814 154.628V152.726H7.71983C8.57614 152.726 9.23011 152.564 9.68174 152.24C10.135 151.917 10.36 151.433 10.36 150.785C10.36 150.089 10.1172 149.584 9.62994 149.27C9.1427 148.956 8.49682 148.799 7.69069 148.799H3.97731V146.758H7.78296C9.43245 146.758 10.6724 147.098 11.5012 147.779C12.3284 148.459 12.7444 149.409 12.7444 150.628C12.7444 151.085 12.6699 151.546 12.5226 152.014C12.3737 152.482 12.1147 152.914 11.7424 153.312C11.3701 153.709 10.8521 154.028 10.19 154.269C9.52796 154.508 8.68621 154.63 7.66317 154.63H4.11653L4.11814 154.628Z" fill="#FEFFEA"/>
<path d="M14.1289 148.8V146.759H20.217V148.8H18.3425V158.665H20.2267V160.706H14.1305V158.665H16.0147V148.8H14.1305H14.1289ZM19.1081 148.8V146.759H21.6026C23.2586 146.759 24.505 147.088 25.3386 147.743C26.1739 148.399 26.5899 149.315 26.5899 150.492C26.5899 151.059 26.4896 151.573 26.2888 152.035C26.0897 152.496 25.7984 152.893 25.4163 153.221C25.0343 153.551 24.5665 153.796 24.0113 153.956V154.27L21.5362 154.639H17.8698V152.737H21.5087C22.0931 152.737 22.5852 152.663 22.9866 152.511C23.3864 152.36 23.6892 152.133 23.8964 151.832C24.1035 151.531 24.2055 151.153 24.2055 150.696C24.2055 150.031 23.9611 149.55 23.4706 149.251C22.9818 148.953 22.3327 148.802 21.5265 148.802H19.1065L19.1081 148.8ZM22.433 153.187C22.8571 153.273 23.2553 153.443 23.6244 153.696C23.9935 153.948 24.246 154.259 24.382 154.628L25.8874 158.665H27.2358V160.706H24.0857L22.4233 155.792C22.276 155.361 22.0963 155.06 21.8875 154.892C21.6787 154.722 21.3679 154.638 20.9551 154.638H20.0875L22.433 153.187Z" fill="#FEFFEA"/>
<path d="M28.9297 148.8V146.759H35.0161V148.8H33.1416V158.665H35.0161V160.706H28.9297V158.665H30.8139V148.8H28.9297Z" fill="#FEFFEA"/>
<path d="M49.6912 148.8L45.026 160.706H42.3195L37.6543 148.8H36.4727V146.759H42.8456V148.8H40.1391L44.1115 159.191L42.81 158.212H44.6197L43.4931 159.191L47.4655 148.8H44.759V146.759H50.8745V148.8H49.6912Z" fill="#FEFFEA"/>
<path d="M63.4186 158.665H64.5922V160.706H58.4588V158.665H60.9338L56.8967 148.19L58.1528 149.299H56.3431L57.5523 148.19L53.5152 158.665H56.0274V160.706H50.043V158.665H51.2246L55.9449 146.759H58.7064L63.417 158.665H63.4186ZM61.0811 154.453V156.347H53.5346V154.453H61.0811Z" fill="#FEFFEA"/>
<path d="M77.7614 146.759V151.664H75.526V148.8H72.1266V158.665H74.0108V160.706H67.9147V158.665H69.7989V148.8H66.3898V151.664H64.1641V146.759H77.7598H77.7614Z" fill="#FEFFEA"/>
<path d="M90.4445 156.227H92.7722V160.706H79.4258V158.665H81.31V148.8H79.4258V146.759H92.6071V151.238H90.2794V148.8H83.6377V158.665H90.4445V156.227ZM88.727 152.726V154.628H82.5758V152.726H88.727Z" fill="#FEFFEA"/>
<path d="M101.133 148.8V146.759H107.303V148.8H105.345V158.665H111.423V160.706H101.133V158.665H103.017V148.8H101.133ZM112.872 155.727V160.706H110.544V155.727H112.872Z" fill="#FEFFEA"/>
<path d="M114.48 148.8V146.759H120.567V148.8H118.692V158.665H120.567V160.706H114.48V158.665H116.365V148.8H114.48Z" fill="#FEFFEA"/>
<path d="M122.82 160.706V158.665H124.695V148.801H122.82V146.759H128.677L127.947 148.801H126.875V158.665H128.824V160.706H122.82ZM130.967 160.706L126.793 148.116L128.759 146.758L132.51 158.304L131.91 158.277L135.733 146.758L137.35 148.116L133.156 160.706H130.967ZM135.244 160.706V158.665H137.258V148.801H136.066L135.733 146.759H141.468V148.801H139.584V158.665H141.468V160.706H135.242H135.244Z" fill="#FEFFEA"/>
<path d="M143.715 148.8V146.759H149.801V148.8H147.927V158.665H149.801V160.706H143.715V158.665H145.599V148.8H143.715Z" fill="#FEFFEA"/>
<path d="M165.058 146.759V151.664H162.823V148.8H159.423V158.665H161.308V160.706H155.212V158.665H157.096V148.8H153.687V151.664H151.461V146.759H165.057H165.058Z" fill="#FEFFEA"/>
<path d="M177.741 156.227H180.069V160.706H166.723V158.665H168.607V148.8H166.723V146.759H179.902V151.238H177.575V148.8H170.935V158.665H177.741V156.227ZM176.022 152.726V154.628H169.871V152.726H176.022Z" fill="#FEFFEA"/>
<path d="M182.277 160.706V158.665H184.162V148.8H182.277V146.759H188.623V148.8H186.489V158.665H188.623V160.706H182.277ZM188.014 160.706V158.665H189.123C190.089 158.665 190.938 158.455 191.668 158.032C192.398 157.61 192.966 157.025 193.377 156.277C193.787 155.53 193.992 154.665 193.992 153.686C193.992 152.707 193.787 151.878 193.377 151.141C192.967 150.405 192.398 149.832 191.668 149.419C190.938 149.006 190.089 148.8 189.123 148.8H188.014V146.759H189.141C190.581 146.759 191.852 147.056 192.951 147.646C194.05 148.237 194.907 149.053 195.519 150.094C196.13 151.135 196.438 152.336 196.438 153.696C196.438 155.055 196.132 156.29 195.519 157.344C194.905 158.398 194.05 159.22 192.951 159.814C191.852 160.408 190.583 160.706 189.141 160.706H188.014Z" fill="#FEFFEA"/>
</svg>
