<svg width="127" height="70" viewBox="0 0 127 70" fill="none" xmlns="http://www.w3.org/2000/svg">
<g clip-path="url(#clip0_517_4630)">
<path d="M79.8514 9.59167C77.9396 8.89414 75.9691 8.62874 73.9447 8.74383C73.1297 8.7861 72.31 8.82368 71.5045 8.92937C70.3654 9.07968 69.224 9.23938 68.106 9.48598C65.377 10.0896 62.7536 10.975 60.3204 12.3912C58.9066 13.2109 57.5303 14.0681 56.2245 15.0522C54.8811 16.0644 53.6269 17.1659 52.4972 18.4107C51.4967 19.5122 50.5855 20.6747 49.8057 21.9406C49.026 23.2112 48.3614 24.5358 47.9363 25.9708C47.8893 26.1352 47.8564 26.2245 48.0842 26.2902C50.2943 26.9055 52.5442 27.1968 55.0924 27.2531C55.4635 27.2226 56.0906 27.1944 56.7153 27.1169C57.7158 26.9971 58.7187 26.8727 59.7098 26.6942C61.6309 26.3489 63.4722 25.7265 65.2454 24.9139C67.0679 24.0755 68.7824 23.0444 70.4124 21.8748C71.852 20.8415 73.2236 19.7259 74.4895 18.4929C75.2035 17.7977 75.9057 17.0931 76.5704 16.3509C77.1622 15.691 77.7282 15.0028 78.2449 14.2795C79.1585 12.9971 79.6799 11.5316 80.0675 10.0144C80.1285 9.78426 80.0815 9.68092 79.8514 9.59637V9.59167ZM76.7465 12.0342C76.2204 12.7576 75.6779 13.4669 75.1354 14.1785C74.9005 14.4862 74.6586 14.7915 74.3932 15.0733C73.7309 15.7732 73.0827 16.4919 72.3781 17.1448C71.232 18.2016 70.0131 19.1716 68.7049 20.0312C66.6264 21.3934 64.407 22.4784 62.0748 23.3216C60.4989 23.8899 58.8854 24.3409 57.2203 24.5781C56.3184 24.7049 55.4095 24.7895 54.5006 24.8811C54.0238 24.9257 53.5424 24.9398 53.0656 24.9656L52.9881 24.8646C53.0844 24.7401 53.1595 24.5828 53.2864 24.4982C54.5804 23.6433 55.8487 22.7391 57.1897 21.9711C59.8718 20.4422 62.5986 18.9884 65.3065 17.5041C65.5719 17.3585 65.8302 17.2058 66.0792 17.032C61.4243 19.0824 56.7928 21.1938 52.0111 22.974C54.9351 19.0119 58.5519 15.8883 63.0237 13.8004C67.4837 11.7172 72.1527 10.6932 77.127 11.1699C77.127 11.5246 76.9297 11.7829 76.7489 12.0319L76.7465 12.0342Z" fill="url(#paint0_linear_517_4630)"/>
<path d="M50.1328 18.1969C50.6636 16.4073 51.286 14.6294 52.1761 12.9642C52.7961 11.8017 53.4514 10.6532 54.1794 9.55877C54.776 8.66395 55.4712 7.82785 56.1805 7.01758C56.7934 6.3177 57.4581 5.66009 58.1486 5.03772C59.2148 4.07714 60.3727 3.24104 61.6339 2.5435C63.5151 1.50542 65.4974 0.737431 67.5876 0.244225C68.0221 0.140887 68.4707 0.0892175 68.9968 0.00231934C69.0813 0.678716 69.2034 1.31519 69.2316 1.9587C69.3209 3.86107 68.9169 5.68593 68.2922 7.46852C68.2593 7.56246 68.1701 7.67754 68.0832 7.70103C67.3246 7.9124 66.5613 8.10499 65.7463 8.31871C66.6129 6.39521 66.9723 4.3942 67.1813 2.26872C66.7186 2.44251 66.3217 2.58108 65.9342 2.74313C64.3301 3.41014 62.8035 4.22275 61.3943 5.24204C60.2952 6.03587 59.2336 6.87432 58.259 7.82316C57.188 8.86593 56.2251 9.99561 55.3984 11.238C54.6069 12.4264 53.9305 13.6735 53.4514 15.024C53.4255 15.0968 53.395 15.1766 53.341 15.2259C52.27 16.2217 51.1967 17.2152 50.1328 18.1993V18.1969Z" fill="url(#paint1_linear_517_4630)"/>
<path d="M31.3749 49.4403H24.0567C26.1751 50.6828 27.1803 53.9731 27.1803 59.1518C27.1803 67.1417 26.464 69.0817 22.1402 69.2602C22.0064 69.2649 21.8655 69.2696 21.7245 69.2719H21.6846C21.5883 69.2743 21.492 69.2743 21.3934 69.2743C17.8541 69.2743 17.7531 68.3254 17.7531 65.9815V49.438H6.2825V65.9322C6.2825 67.7759 4.88743 69.2743 3.09076 69.2743H0V69.9741H26.3325C35.4098 69.9741 40.6472 65.486 40.6472 59.4501C40.6472 54.5086 36.469 51.0468 31.3749 49.4403ZM23.392 30.0221H1.24711V30.6703H3.9386C5.48633 30.6703 6.2825 31.2716 6.2825 32.716V47.3149H17.7531V30.668H21.9923C24.2892 30.668 25.8322 32.6643 25.8322 38.9985C25.8322 43.4632 25.6138 46.1241 24.3385 47.3149H30.9992C34.865 45.7671 37.6527 42.9324 37.6527 39.1981C37.6527 33.2139 31.0696 30.0198 23.3874 30.0198L23.392 30.0221Z" fill="black"/>
<path d="M84.6638 30.7479H83.7667C81.4228 30.7479 78.231 32.5422 78.231 38.0285V69.9483H68.8037L50.5997 35.8842C50.5997 35.8842 50.5997 60.0231 50.5504 60.4717C50.5504 66.059 52.7957 69.3001 56.4853 69.3001H57.8827V69.9483H43.918V69.3001H45.515C47.4597 69.3001 49.9046 66.0074 49.9046 60.1735V35.5343C49.9046 32.3426 47.3117 30.6962 45.515 30.6962H44.6672V30.048H62.7209L77.5335 58.2265V37.9768C77.5335 33.538 74.9406 30.7455 72.3971 30.7455H70.2011V30.048H84.6662V30.7455L84.6638 30.7479Z" fill="black"/>
<path d="M117.613 49.4639H110.295C112.413 50.7063 113.419 53.9967 113.419 59.1753C113.419 67.1653 112.702 69.1052 108.379 69.2837C108.245 69.2884 108.104 69.2931 107.963 69.2954H107.923C107.827 69.2978 107.73 69.2978 107.632 69.2978C104.092 69.2978 103.991 68.349 103.991 66.0051V49.4615H92.5208V65.9557C92.5208 67.7994 91.1257 69.2978 89.329 69.2978H86.2383V69.9977H112.571C121.648 69.9977 126.885 65.5095 126.885 59.4736C126.885 54.5322 122.707 51.0703 117.613 49.4639ZM109.63 30.048H87.4854V30.6962H90.1769C91.7246 30.6962 92.5208 31.2975 92.5208 32.7418V47.3407H103.991V30.6939H108.231C110.527 30.6939 112.071 32.6902 112.071 39.0244C112.071 43.489 111.852 46.15 110.577 47.3407H117.237C121.103 45.793 123.891 42.9583 123.891 39.224C123.891 33.2397 117.308 30.0457 109.626 30.0457L109.63 30.048Z" fill="black"/>
</g>
<defs>
<linearGradient id="paint0_linear_517_4630" x1="47.901" y1="17.9832" x2="80.0933" y2="17.9832" gradientUnits="userSpaceOnUse">
<stop stop-color="#DFAE32"/>
<stop offset="0.17" stop-color="#F0D296"/>
<stop offset="0.49" stop-color="#E0B037"/>
<stop offset="0.73" stop-color="#F2D59F"/>
<stop offset="1" stop-color="#E0B035"/>
</linearGradient>
<linearGradient id="paint1_linear_517_4630" x1="50.1328" y1="9.09844" x2="69.2457" y2="9.09844" gradientUnits="userSpaceOnUse">
<stop stop-color="#DFAE32"/>
<stop offset="0.17" stop-color="#F0D296"/>
<stop offset="0.49" stop-color="#E0B037"/>
<stop offset="0.73" stop-color="#F2D59F"/>
<stop offset="1" stop-color="#E0B035"/>
</linearGradient>
<clipPath id="clip0_517_4630">
<rect width="126.885" height="70" fill="white"/>
</clipPath>
</defs>
</svg>
