<svg style="max-height: 500px" viewBox="602.1837214536928 19.079036144578314 128.47504806565064 71.59277108433734" fill="none" xmlns="http://www.w3.org/2000/svg" width="128.47504806565064" height="71.59277108433734">
<path d="M1.40909 72V60.3636H5.34091C6.25379 60.3636 7 60.5284 7.57955 60.858C8.16288 61.1837 8.5947 61.625 8.875 62.1818C9.1553 62.7386 9.29545 63.3598 9.29545 64.0455C9.29545 64.7311 9.1553 65.3542 8.875 65.9148C8.59849 66.4754 8.17046 66.9223 7.59091 67.2557C7.01136 67.5852 6.26894 67.75 5.36364 67.75H2.54545V66.5H5.31818C5.94318 66.5 6.44508 66.392 6.82386 66.1761C7.20265 65.9602 7.47727 65.6686 7.64773 65.3011C7.82197 64.9299 7.90909 64.5114 7.90909 64.0455C7.90909 63.5795 7.82197 63.1629 7.64773 62.7955C7.47727 62.428 7.20076 62.1402 6.81818 61.9318C6.43561 61.7197 5.92803 61.6136 5.29545 61.6136H2.81818V72H1.40909ZM11.5653 72V60.3636H15.4972C16.4063 60.3636 17.1525 60.5189 17.7358 60.8295C18.3191 61.1364 18.7509 61.5587 19.0312 62.0966C19.3116 62.6345 19.4517 63.2462 19.4517 63.9318C19.4517 64.6174 19.3116 65.2254 19.0312 65.7557C18.7509 66.286 18.321 66.7027 17.7415 67.0057C17.1619 67.3049 16.4214 67.4545 15.5199 67.4545H12.3381V66.1818H15.4744C16.0956 66.1818 16.5956 66.0909 16.9744 65.9091C17.357 65.7273 17.6335 65.4697 17.804 65.1364C17.9782 64.7992 18.0653 64.3977 18.0653 63.9318C18.0653 63.4659 17.9782 63.0587 17.804 62.7102C17.6297 62.3617 17.3513 62.0928 16.9688 61.9034C16.5862 61.7102 16.0805 61.6136 15.4517 61.6136H12.9744V72H11.5653ZM17.0426 66.7727L19.9062 72H18.2699L15.4517 66.7727H17.0426ZM31.6179 66.1818C31.6179 67.4091 31.3963 68.4697 30.9531 69.3636C30.5099 70.2576 29.902 70.947 29.1293 71.4318C28.3565 71.9167 27.474 72.1591 26.4815 72.1591C25.4891 72.1591 24.6065 71.9167 23.8338 71.4318C23.0611 70.947 22.4531 70.2576 22.0099 69.3636C21.5668 68.4697 21.3452 67.4091 21.3452 66.1818C21.3452 64.9545 21.5668 63.8939 22.0099 63C22.4531 62.1061 23.0611 61.4167 23.8338 60.9318C24.6065 60.447 25.4891 60.2045 26.4815 60.2045C27.474 60.2045 28.3565 60.447 29.1293 60.9318C29.902 61.4167 30.5099 62.1061 30.9531 63C31.3963 63.8939 31.6179 64.9545 31.6179 66.1818ZM30.2543 66.1818C30.2543 65.1742 30.0857 64.3239 29.7486 63.6307C29.4152 62.9375 28.9626 62.4129 28.3906 62.0568C27.8224 61.7008 27.1861 61.5227 26.4815 61.5227C25.777 61.5227 25.1387 61.7008 24.5668 62.0568C23.9986 62.4129 23.5459 62.9375 23.2088 63.6307C22.8755 64.3239 22.7088 65.1742 22.7088 66.1818C22.7088 67.1894 22.8755 68.0398 23.2088 68.733C23.5459 69.4261 23.9986 69.9508 24.5668 70.3068C25.1387 70.6629 25.777 70.8409 26.4815 70.8409C27.1861 70.8409 27.8224 70.6629 28.3906 70.3068C28.9626 69.9508 29.4152 69.4261 29.7486 68.733C30.0857 68.0398 30.2543 67.1894 30.2543 66.1818ZM37.5781 72H33.9872V60.3636H37.7372C38.866 60.3636 39.8319 60.5966 40.6349 61.0625C41.438 61.5246 42.0535 62.1894 42.4815 63.0568C42.9096 63.9205 43.1236 64.9545 43.1236 66.1591C43.1236 67.3712 42.9077 68.4148 42.4759 69.2898C42.044 70.161 41.4152 70.8314 40.5895 71.3011C39.7637 71.767 38.7599 72 37.5781 72ZM35.3963 70.75H37.4872C38.4493 70.75 39.2467 70.5644 39.8793 70.1932C40.5118 69.822 40.9834 69.2936 41.294 68.608C41.6046 67.9223 41.7599 67.1061 41.7599 66.1591C41.7599 65.2197 41.6065 64.411 41.2997 63.733C40.9929 63.0511 40.5346 62.5284 39.9247 62.1648C39.3149 61.7973 38.5554 61.6136 37.6463 61.6136H35.3963V70.75ZM53.1236 60.3636H54.5327V68.0682C54.5327 68.8636 54.3452 69.5739 53.9702 70.1989C53.599 70.8201 53.0743 71.3106 52.3963 71.6705C51.7183 72.0265 50.9228 72.2045 50.0099 72.2045C49.0971 72.2045 48.3016 72.0265 47.6236 71.6705C46.9455 71.3106 46.419 70.8201 46.044 70.1989C45.6728 69.5739 45.4872 68.8636 45.4872 68.0682V60.3636H46.8963V67.9545C46.8963 68.5227 47.0213 69.0284 47.2713 69.4716C47.5213 69.911 47.8774 70.2576 48.3395 70.5114C48.8054 70.7614 49.3622 70.8864 50.0099 70.8864C50.6577 70.8864 51.2145 70.7614 51.6804 70.5114C52.1463 70.2576 52.5024 69.911 52.7486 69.4716C52.9986 69.0284 53.1236 68.5227 53.1236 67.9545V60.3636ZM66.7102 64H65.3011C65.2178 63.5947 65.072 63.2386 64.8636 62.9318C64.6591 62.625 64.4091 62.3674 64.1136 62.1591C63.822 61.947 63.4981 61.7879 63.142 61.6818C62.786 61.5758 62.4148 61.5227 62.0284 61.5227C61.3239 61.5227 60.6856 61.7008 60.1136 62.0568C59.5455 62.4129 59.0928 62.9375 58.7557 63.6307C58.4223 64.3239 58.2557 65.1742 58.2557 66.1818C58.2557 67.1894 58.4223 68.0398 58.7557 68.733C59.0928 69.4261 59.5455 69.9508 60.1136 70.3068C60.6856 70.6629 61.3239 70.8409 62.0284 70.8409C62.4148 70.8409 62.786 70.7879 63.142 70.6818C63.4981 70.5758 63.822 70.4186 64.1136 70.2102C64.4091 69.9981 64.6591 69.7386 64.8636 69.4318C65.072 69.1212 65.2178 68.7652 65.3011 68.3636H66.7102C66.6042 68.9583 66.411 69.4905 66.1307 69.9602C65.8504 70.4299 65.5019 70.8295 65.0852 71.1591C64.6686 71.4848 64.2008 71.733 63.6818 71.9034C63.1667 72.0739 62.6155 72.1591 62.0284 72.1591C61.036 72.1591 60.1534 71.9167 59.3807 71.4318C58.608 70.947 58 70.2576 57.5568 69.3636C57.1136 68.4697 56.892 67.4091 56.892 66.1818C56.892 64.9545 57.1136 63.8939 57.5568 63C58 62.1061 58.608 61.4167 59.3807 60.9318C60.1534 60.447 61.036 60.2045 62.0284 60.2045C62.6155 60.2045 63.1667 60.2898 63.6818 60.4602C64.2008 60.6307 64.6686 60.8807 65.0852 61.2102C65.5019 61.536 65.8504 61.9337 66.1307 62.4034C66.411 62.8693 66.6042 63.4015 66.7102 64ZM68.3509 61.6136V60.3636H77.0781V61.6136H73.419V72H72.0099V61.6136H68.3509ZM85.6165 63.2727C85.5483 62.697 85.2718 62.25 84.7869 61.9318C84.3021 61.6136 83.7074 61.4545 83.0028 61.4545C82.4877 61.4545 82.0369 61.5379 81.6506 61.7045C81.268 61.8712 80.9688 62.1004 80.7528 62.392C80.5407 62.6837 80.4347 63.0152 80.4347 63.3864C80.4347 63.697 80.5085 63.964 80.6562 64.1875C80.8078 64.4072 81.0009 64.5909 81.2358 64.7386C81.4706 64.8826 81.7169 65.0019 81.9744 65.0966C82.232 65.1875 82.4688 65.2614 82.6847 65.3182L83.8665 65.6364C84.1695 65.7159 84.5066 65.8258 84.8778 65.9659C85.2528 66.1061 85.6108 66.2973 85.9517 66.5398C86.2964 66.7784 86.5805 67.0852 86.804 67.4602C87.0275 67.8352 87.1392 68.2955 87.1392 68.8409C87.1392 69.4697 86.9744 70.0379 86.6449 70.5455C86.3191 71.053 85.8419 71.4564 85.2131 71.7557C84.5881 72.0549 83.8286 72.2045 82.9347 72.2045C82.1013 72.2045 81.3797 72.0701 80.7699 71.8011C80.1638 71.5322 79.6866 71.1572 79.3381 70.6761C78.9934 70.1951 78.7983 69.6364 78.7528 69H80.2074C80.2453 69.4394 80.393 69.803 80.6506 70.0909C80.9119 70.375 81.2415 70.5871 81.6392 70.7273C82.0407 70.8636 82.4725 70.9318 82.9347 70.9318C83.4725 70.9318 83.9555 70.8447 84.3835 70.6705C84.8116 70.4924 85.1506 70.2462 85.4006 69.9318C85.6506 69.6136 85.7756 69.2424 85.7756 68.8182C85.7756 68.4318 85.6676 68.1174 85.4517 67.875C85.2358 67.6326 84.9517 67.4356 84.5994 67.2841C84.2472 67.1326 83.8665 67 83.4574 66.8864L82.0256 66.4773C81.1165 66.2159 80.3968 65.8428 79.8665 65.358C79.3362 64.8731 79.071 64.2386 79.071 63.4545C79.071 62.803 79.2472 62.2348 79.5994 61.75C79.9555 61.2614 80.4328 60.8826 81.0312 60.6136C81.6335 60.3409 82.3059 60.2045 83.0483 60.2045C83.7983 60.2045 84.465 60.339 85.0483 60.608C85.6316 60.8731 86.0938 61.2367 86.4347 61.6989C86.7794 62.161 86.9612 62.6856 86.9801 63.2727H85.6165Z" fill="black"/>
<path d="M104.469 70.0306L99.4694 65.0306C99.3285 64.8897 99.2493 64.6986 99.2493 64.4994C99.2493 64.3001 99.3285 64.109 99.4694 63.9681C99.6103 63.8272 99.8014 63.7481 100.001 63.7481C100.2 63.7481 100.391 63.8272 100.532 63.9681L105 68.4375L109.469 63.9694C109.539 63.8996 109.622 63.8443 109.713 63.8065C109.804 63.7688 109.902 63.7493 110.001 63.7493C110.099 63.7493 110.197 63.7688 110.288 63.8065C110.379 63.8443 110.462 63.8996 110.532 63.9694C110.602 64.0391 110.657 64.122 110.695 64.2131C110.732 64.3043 110.752 64.402 110.752 64.5006C110.752 64.5993 110.732 64.697 110.695 64.7881C110.657 64.8793 110.602 64.9621 110.532 65.0319L105.532 70.0319C105.462 70.1017 105.379 70.1571 105.288 70.1948C105.197 70.2326 105.099 70.252 105 70.2518C104.902 70.2517 104.804 70.2321 104.713 70.1942C104.622 70.1562 104.539 70.1006 104.469 70.0306Z" fill="black"/>
<path d="M204.523 72L201.341 60.3636H202.773L205.205 69.8409H205.318L207.795 60.3636H209.386L211.864 69.8409H211.977L214.409 60.3636H215.841L212.659 72H211.205L208.636 62.7273H208.545L205.977 72H204.523ZM217.597 72V60.3636H219.006V65.5455H225.21V60.3636H226.619V72H225.21V66.7955H219.006V72H217.597ZM239.259 66.1818C239.259 67.4091 239.037 68.4697 238.594 69.3636C238.151 70.2576 237.543 70.947 236.77 71.4318C235.997 71.9167 235.115 72.1591 234.122 72.1591C233.13 72.1591 232.247 71.9167 231.474 71.4318C230.702 70.947 230.094 70.2576 229.651 69.3636C229.207 68.4697 228.986 67.4091 228.986 66.1818C228.986 64.9545 229.207 63.8939 229.651 63C230.094 62.1061 230.702 61.4167 231.474 60.9318C232.247 60.447 233.13 60.2045 234.122 60.2045C235.115 60.2045 235.997 60.447 236.77 60.9318C237.543 61.4167 238.151 62.1061 238.594 63C239.037 63.8939 239.259 64.9545 239.259 66.1818ZM237.895 66.1818C237.895 65.1742 237.726 64.3239 237.389 63.6307C237.056 62.9375 236.603 62.4129 236.031 62.0568C235.463 61.7008 234.827 61.5227 234.122 61.5227C233.418 61.5227 232.779 61.7008 232.207 62.0568C231.639 62.4129 231.187 62.9375 230.849 63.6307C230.516 64.3239 230.349 65.1742 230.349 66.1818C230.349 67.1894 230.516 68.0398 230.849 68.733C231.187 69.4261 231.639 69.9508 232.207 70.3068C232.779 70.6629 233.418 70.8409 234.122 70.8409C234.827 70.8409 235.463 70.6629 236.031 70.3068C236.603 69.9508 237.056 69.4261 237.389 68.733C237.726 68.0398 237.895 67.1894 237.895 66.1818ZM248.241 72L245.06 60.3636H246.491L248.923 69.8409H249.037L251.514 60.3636H253.105L255.582 69.8409H255.696L258.128 60.3636H259.56L256.378 72H254.923L252.355 62.7273H252.264L249.696 72H248.241ZM261.315 72V60.3636H268.338V61.6136H262.724V65.5455H267.974V66.7955H262.724V70.75H268.429V72H261.315ZM275.855 72H274.378L278.651 60.3636H280.105L284.378 72H282.901L279.423 62.2045H279.332L275.855 72ZM276.401 67.4545H282.355V68.7045H276.401V67.4545ZM286.19 72V60.3636H290.122C291.031 60.3636 291.777 60.5189 292.361 60.8295C292.944 61.1364 293.376 61.5587 293.656 62.0966C293.937 62.6345 294.077 63.2462 294.077 63.9318C294.077 64.6174 293.937 65.2254 293.656 65.7557C293.376 66.286 292.946 66.7027 292.366 67.0057C291.787 67.3049 291.046 67.4545 290.145 67.4545H286.963V66.1818H290.099C290.721 66.1818 291.221 66.0909 291.599 65.9091C291.982 65.7273 292.259 65.4697 292.429 65.1364C292.603 64.7992 292.69 64.3977 292.69 63.9318C292.69 63.4659 292.603 63.0587 292.429 62.7102C292.255 62.3617 291.976 62.0928 291.594 61.9034C291.211 61.7102 290.705 61.6136 290.077 61.6136H287.599V72H286.19ZM291.668 66.7727L294.531 72H292.895L290.077 66.7727H291.668ZM296.425 72V60.3636H303.447V61.6136H297.834V65.5455H303.084V66.7955H297.834V70.75H303.538V72H296.425Z" fill="black"/>
<path d="M404.227 66.1818C404.227 67.4091 404.006 68.4697 403.562 69.3636C403.119 70.2576 402.511 70.947 401.739 71.4318C400.966 71.9167 400.083 72.1591 399.091 72.1591C398.098 72.1591 397.216 71.9167 396.443 71.4318C395.67 70.947 395.063 70.2576 394.619 69.3636C394.176 68.4697 393.955 67.4091 393.955 66.1818C393.955 64.9545 394.176 63.8939 394.619 63C395.063 62.1061 395.67 61.4167 396.443 60.9318C397.216 60.447 398.098 60.2045 399.091 60.2045C400.083 60.2045 400.966 60.447 401.739 60.9318C402.511 61.4167 403.119 62.1061 403.562 63C404.006 63.8939 404.227 64.9545 404.227 66.1818ZM402.864 66.1818C402.864 65.1742 402.695 64.3239 402.358 63.6307C402.025 62.9375 401.572 62.4129 401 62.0568C400.432 61.7008 399.795 61.5227 399.091 61.5227C398.386 61.5227 397.748 61.7008 397.176 62.0568C396.608 62.4129 396.155 62.9375 395.818 63.6307C395.485 64.3239 395.318 65.1742 395.318 66.1818C395.318 67.1894 395.485 68.0398 395.818 68.733C396.155 69.4261 396.608 69.9508 397.176 70.3068C397.748 70.6629 398.386 70.8409 399.091 70.8409C399.795 70.8409 400.432 70.6629 401 70.3068C401.572 69.9508 402.025 69.4261 402.358 68.733C402.695 68.0398 402.864 67.1894 402.864 66.1818ZM414.233 60.3636H415.642V68.0682C415.642 68.8636 415.455 69.5739 415.08 70.1989C414.708 70.8201 414.184 71.3106 413.506 71.6705C412.828 72.0265 412.032 72.2045 411.119 72.2045C410.206 72.2045 409.411 72.0265 408.733 71.6705C408.055 71.3106 407.528 70.8201 407.153 70.1989C406.782 69.5739 406.597 68.8636 406.597 68.0682V60.3636H408.006V67.9545C408.006 68.5227 408.131 69.0284 408.381 69.4716C408.631 69.911 408.987 70.2576 409.449 70.5114C409.915 70.7614 410.472 70.8864 411.119 70.8864C411.767 70.8864 412.324 70.7614 412.79 70.5114C413.256 70.2576 413.612 69.911 413.858 69.4716C414.108 69.0284 414.233 68.5227 414.233 67.9545V60.3636ZM418.456 72V60.3636H422.388C423.297 60.3636 424.043 60.5189 424.626 60.8295C425.21 61.1364 425.642 61.5587 425.922 62.0966C426.202 62.6345 426.342 63.2462 426.342 63.9318C426.342 64.6174 426.202 65.2254 425.922 65.7557C425.642 66.286 425.212 66.7027 424.632 67.0057C424.053 67.3049 423.312 67.4545 422.411 67.4545H419.229V66.1818H422.365C422.986 66.1818 423.486 66.0909 423.865 65.9091C424.248 65.7273 424.524 65.4697 424.695 65.1364C424.869 64.7992 424.956 64.3977 424.956 63.9318C424.956 63.4659 424.869 63.0587 424.695 62.7102C424.52 62.3617 424.242 62.0928 423.859 61.9034C423.477 61.7102 422.971 61.6136 422.342 61.6136H419.865V72H418.456ZM423.933 66.7727L426.797 72H425.161L422.342 66.7727H423.933ZM433.19 72V60.3636H437.259C438.069 60.3636 438.738 60.5038 439.264 60.7841C439.791 61.0606 440.183 61.4337 440.44 61.9034C440.698 62.3693 440.827 62.8864 440.827 63.4545C440.827 63.9545 440.738 64.3674 440.56 64.6932C440.385 65.0189 440.154 65.2765 439.866 65.4659C439.582 65.6553 439.274 65.7955 438.94 65.8864V66C439.296 66.0227 439.654 66.1477 440.014 66.375C440.374 66.6023 440.675 66.928 440.918 67.3523C441.16 67.7765 441.281 68.2955 441.281 68.9091C441.281 69.4924 441.149 70.017 440.884 70.483C440.618 70.9489 440.2 71.3182 439.628 71.5909C439.056 71.8636 438.312 72 437.395 72H433.19ZM434.599 70.75H437.395C438.315 70.75 438.969 70.572 439.355 70.2159C439.745 69.8561 439.94 69.4205 439.94 68.9091C439.94 68.5152 439.84 68.1515 439.639 67.8182C439.438 67.4811 439.152 67.2121 438.781 67.0114C438.41 66.8068 437.971 66.7045 437.463 66.7045H434.599V70.75ZM434.599 65.4773H437.213C437.637 65.4773 438.02 65.3939 438.361 65.2273C438.705 65.0606 438.978 64.8258 439.179 64.5227C439.384 64.2197 439.486 63.8636 439.486 63.4545C439.486 62.9432 439.308 62.5095 438.952 62.1534C438.596 61.7936 438.031 61.6136 437.259 61.6136H434.599V65.4773ZM443.597 72V60.3636H447.528C448.438 60.3636 449.184 60.5189 449.767 60.8295C450.35 61.1364 450.782 61.5587 451.062 62.0966C451.343 62.6345 451.483 63.2462 451.483 63.9318C451.483 64.6174 451.343 65.2254 451.062 65.7557C450.782 66.286 450.352 66.7027 449.773 67.0057C449.193 67.3049 448.453 67.4545 447.551 67.4545H444.369V66.1818H447.506C448.127 66.1818 448.627 66.0909 449.006 65.9091C449.388 65.7273 449.665 65.4697 449.835 65.1364C450.009 64.7992 450.097 64.3977 450.097 63.9318C450.097 63.4659 450.009 63.0587 449.835 62.7102C449.661 62.3617 449.383 62.0928 449 61.9034C448.617 61.7102 448.112 61.6136 447.483 61.6136H445.006V72H443.597ZM449.074 66.7727L451.938 72H450.301L447.483 66.7727H449.074ZM454.308 72H452.831L457.104 60.3636H458.558L462.831 72H461.354L457.876 62.2045H457.786L454.308 72ZM454.854 67.4545H460.808V68.7045H454.854V67.4545ZM473.871 60.3636V72H472.507L466.166 62.8636H466.053V72H464.643V60.3636H466.007L472.371 69.5227H472.484V60.3636H473.871ZM480.281 72H476.69V60.3636H480.44C481.569 60.3636 482.535 60.5966 483.338 61.0625C484.141 61.5246 484.757 62.1894 485.185 63.0568C485.613 63.9205 485.827 64.9545 485.827 66.1591C485.827 67.3712 485.611 68.4148 485.179 69.2898C484.747 70.161 484.118 70.8314 483.293 71.3011C482.467 71.767 481.463 72 480.281 72ZM478.099 70.75H480.19C481.152 70.75 481.95 70.5644 482.582 70.1932C483.215 69.822 483.687 69.2936 483.997 68.608C484.308 67.9223 484.463 67.1061 484.463 66.1591C484.463 65.2197 484.31 64.411 484.003 63.733C483.696 63.0511 483.238 62.5284 482.628 62.1648C482.018 61.7973 481.259 61.6136 480.349 61.6136H478.099V70.75Z" fill="black"/>
<path d="M1070.64 61.3636V73H1069.27L1062.93 63.8636H1062.82V73H1061.41V61.3636H1062.77L1069.14 70.5227H1069.25V61.3636H1070.64ZM1073.46 73V61.3636H1080.48V62.6136H1074.87V66.5455H1080.12V67.7955H1074.87V71.75H1080.57V73H1073.46ZM1085.13 73L1081.95 61.3636H1083.38L1085.81 70.8409H1085.93L1088.4 61.3636H1090L1092.47 70.8409H1092.59L1095.02 61.3636H1096.45L1093.27 73H1091.81L1089.25 63.7273H1089.15L1086.59 73H1085.13ZM1104.57 64.2727C1104.5 63.697 1104.22 63.25 1103.74 62.9318C1103.26 62.6136 1102.66 62.4545 1101.96 62.4545C1101.44 62.4545 1100.99 62.5379 1100.6 62.7045C1100.22 62.8712 1099.92 63.1004 1099.71 63.392C1099.49 63.6837 1099.39 64.0152 1099.39 64.3864C1099.39 64.697 1099.46 64.964 1099.61 65.1875C1099.76 65.4072 1099.95 65.5909 1100.19 65.7386C1100.42 65.8826 1100.67 66.0019 1100.93 66.0966C1101.19 66.1875 1101.42 66.2614 1101.64 66.3182L1102.82 66.6364C1103.12 66.7159 1103.46 66.8258 1103.83 66.9659C1104.21 67.1061 1104.56 67.2973 1104.9 67.5398C1105.25 67.7784 1105.53 68.0852 1105.76 68.4602C1105.98 68.8352 1106.09 69.2955 1106.09 69.8409C1106.09 70.4697 1105.93 71.0379 1105.6 71.5455C1105.27 72.053 1104.79 72.4564 1104.17 72.7557C1103.54 73.0549 1102.78 73.2045 1101.89 73.2045C1101.05 73.2045 1100.33 73.0701 1099.72 72.8011C1099.12 72.5322 1098.64 72.1572 1098.29 71.6761C1097.95 71.1951 1097.75 70.6364 1097.71 70H1099.16C1099.2 70.4394 1099.35 70.803 1099.6 71.0909C1099.87 71.375 1100.19 71.5871 1100.59 71.7273C1100.99 71.8636 1101.43 71.9318 1101.89 71.9318C1102.43 71.9318 1102.91 71.8447 1103.34 71.6705C1103.76 71.4924 1104.1 71.2462 1104.35 70.9318C1104.6 70.6136 1104.73 70.2424 1104.73 69.8182C1104.73 69.4318 1104.62 69.1174 1104.4 68.875C1104.19 68.6326 1103.9 68.4356 1103.55 68.2841C1103.2 68.1326 1102.82 68 1102.41 67.8864L1100.98 67.4773C1100.07 67.2159 1099.35 66.8428 1098.82 66.358C1098.29 65.8731 1098.02 65.2386 1098.02 64.4545C1098.02 63.803 1098.2 63.2348 1098.55 62.75C1098.91 62.2614 1099.39 61.8826 1099.98 61.6136C1100.59 61.3409 1101.26 61.2045 1102 61.2045C1102.75 61.2045 1103.42 61.339 1104 61.608C1104.58 61.8731 1105.05 62.2367 1105.39 62.6989C1105.73 63.161 1105.91 63.6856 1105.93 64.2727H1104.57ZM1108.41 73V61.3636H1112.34C1113.25 61.3636 1114 61.5189 1114.58 61.8295C1115.16 62.1364 1115.59 62.5587 1115.88 63.0966C1116.16 63.6345 1116.3 64.2462 1116.3 64.9318C1116.3 65.6174 1116.16 66.2254 1115.88 66.7557C1115.59 67.286 1115.16 67.7027 1114.59 68.0057C1114.01 68.3049 1113.27 68.4545 1112.36 68.4545H1109.18V67.1818H1112.32C1112.94 67.1818 1113.44 67.0909 1113.82 66.9091C1114.2 66.7273 1114.48 66.4697 1114.65 66.1364C1114.82 65.7992 1114.91 65.3977 1114.91 64.9318C1114.91 64.4659 1114.82 64.0587 1114.65 63.7102C1114.47 63.3617 1114.2 63.0928 1113.81 62.9034C1113.43 62.7102 1112.92 62.6136 1112.3 62.6136H1109.82V73H1108.41ZM1113.89 67.7727L1116.75 73H1115.11L1112.3 67.7727H1113.89ZM1128.46 67.1818C1128.46 68.4091 1128.24 69.4697 1127.8 70.3636C1127.35 71.2576 1126.75 71.947 1125.97 72.4318C1125.2 72.9167 1124.32 73.1591 1123.33 73.1591C1122.33 73.1591 1121.45 72.9167 1120.68 72.4318C1119.9 71.947 1119.3 71.2576 1118.85 70.3636C1118.41 69.4697 1118.19 68.4091 1118.19 67.1818C1118.19 65.9545 1118.41 64.8939 1118.85 64C1119.3 63.1061 1119.9 62.4167 1120.68 61.9318C1121.45 61.447 1122.33 61.2045 1123.33 61.2045C1124.32 61.2045 1125.2 61.447 1125.97 61.9318C1126.75 62.4167 1127.35 63.1061 1127.8 64C1128.24 64.8939 1128.46 65.9545 1128.46 67.1818ZM1127.1 67.1818C1127.1 66.1742 1126.93 65.3239 1126.59 64.6307C1126.26 63.9375 1125.81 63.4129 1125.23 63.0568C1124.67 62.7008 1124.03 62.5227 1123.33 62.5227C1122.62 62.5227 1121.98 62.7008 1121.41 63.0568C1120.84 63.4129 1120.39 63.9375 1120.05 64.6307C1119.72 65.3239 1119.55 66.1742 1119.55 67.1818C1119.55 68.1894 1119.72 69.0398 1120.05 69.733C1120.39 70.4261 1120.84 70.9508 1121.41 71.3068C1121.98 71.6629 1122.62 71.8409 1123.33 71.8409C1124.03 71.8409 1124.67 71.6629 1125.23 71.3068C1125.81 70.9508 1126.26 70.4261 1126.59 69.733C1126.93 69.0398 1127.1 68.1894 1127.1 67.1818ZM1140.65 67.1818C1140.65 68.4091 1140.43 69.4697 1139.98 70.3636C1139.54 71.2576 1138.93 71.947 1138.16 72.4318C1137.39 72.9167 1136.51 73.1591 1135.51 73.1591C1134.52 73.1591 1133.64 72.9167 1132.87 72.4318C1132.09 71.947 1131.48 71.2576 1131.04 70.3636C1130.6 69.4697 1130.38 68.4091 1130.38 67.1818C1130.38 65.9545 1130.6 64.8939 1131.04 64C1131.48 63.1061 1132.09 62.4167 1132.87 61.9318C1133.64 61.447 1134.52 61.2045 1135.51 61.2045C1136.51 61.2045 1137.39 61.447 1138.16 61.9318C1138.93 62.4167 1139.54 63.1061 1139.98 64C1140.43 64.8939 1140.65 65.9545 1140.65 67.1818ZM1139.29 67.1818C1139.29 66.1742 1139.12 65.3239 1138.78 64.6307C1138.45 63.9375 1137.99 63.4129 1137.42 63.0568C1136.85 62.7008 1136.22 62.5227 1135.51 62.5227C1134.81 62.5227 1134.17 62.7008 1133.6 63.0568C1133.03 63.4129 1132.58 63.9375 1132.24 64.6307C1131.91 65.3239 1131.74 66.1742 1131.74 67.1818C1131.74 68.1894 1131.91 69.0398 1132.24 69.733C1132.58 70.4261 1133.03 70.9508 1133.6 71.3068C1134.17 71.6629 1134.81 71.8409 1135.51 71.8409C1136.22 71.8409 1136.85 71.6629 1137.42 71.3068C1137.99 70.9508 1138.45 70.4261 1138.78 69.733C1139.12 69.0398 1139.29 68.1894 1139.29 67.1818ZM1143.02 61.3636H1144.7L1148.65 71.0227H1148.79L1152.75 61.3636H1154.43V73H1153.11V64.1591H1153L1149.36 73H1148.09L1144.45 64.1591H1144.34V73H1143.02V61.3636Z" fill="black"/>
<path d="M1264.77 65H1263.36C1263.28 64.5947 1263.13 64.2386 1262.93 63.9318C1262.72 63.625 1262.47 63.3674 1262.18 63.1591C1261.88 62.947 1261.56 62.7879 1261.2 62.6818C1260.85 62.5758 1260.48 62.5227 1260.09 62.5227C1259.39 62.5227 1258.75 62.7008 1258.18 63.0568C1257.61 63.4129 1257.16 63.9375 1256.82 64.6307C1256.48 65.3239 1256.32 66.1742 1256.32 67.1818C1256.32 68.1894 1256.48 69.0398 1256.82 69.733C1257.16 70.4261 1257.61 70.9508 1258.18 71.3068C1258.75 71.6629 1259.39 71.8409 1260.09 71.8409C1260.48 71.8409 1260.85 71.7879 1261.2 71.6818C1261.56 71.5758 1261.88 71.4186 1262.18 71.2102C1262.47 70.9981 1262.72 70.7386 1262.93 70.4318C1263.13 70.1212 1263.28 69.7652 1263.36 69.3636H1264.77C1264.67 69.9583 1264.47 70.4905 1264.19 70.9602C1263.91 71.4299 1263.56 71.8295 1263.15 72.1591C1262.73 72.4848 1262.26 72.733 1261.74 72.9034C1261.23 73.0739 1260.68 73.1591 1260.09 73.1591C1259.1 73.1591 1258.22 72.9167 1257.44 72.4318C1256.67 71.947 1256.06 71.2576 1255.62 70.3636C1255.18 69.4697 1254.95 68.4091 1254.95 67.1818C1254.95 65.9545 1255.18 64.8939 1255.62 64C1256.06 63.1061 1256.67 62.4167 1257.44 61.9318C1258.22 61.447 1259.1 61.2045 1260.09 61.2045C1260.68 61.2045 1261.23 61.2898 1261.74 61.4602C1262.26 61.6307 1262.73 61.8807 1263.15 62.2102C1263.56 62.536 1263.91 62.9337 1264.19 63.4034C1264.47 63.8693 1264.67 64.4015 1264.77 65ZM1276.87 67.1818C1276.87 68.4091 1276.65 69.4697 1276.2 70.3636C1275.76 71.2576 1275.15 71.947 1274.38 72.4318C1273.61 72.9167 1272.72 73.1591 1271.73 73.1591C1270.74 73.1591 1269.86 72.9167 1269.08 72.4318C1268.31 71.947 1267.7 71.2576 1267.26 70.3636C1266.82 69.4697 1266.6 68.4091 1266.6 67.1818C1266.6 65.9545 1266.82 64.8939 1267.26 64C1267.7 63.1061 1268.31 62.4167 1269.08 61.9318C1269.86 61.447 1270.74 61.2045 1271.73 61.2045C1272.72 61.2045 1273.61 61.447 1274.38 61.9318C1275.15 62.4167 1275.76 63.1061 1276.2 64C1276.65 64.8939 1276.87 65.9545 1276.87 67.1818ZM1275.5 67.1818C1275.5 66.1742 1275.34 65.3239 1275 64.6307C1274.67 63.9375 1274.21 63.4129 1273.64 63.0568C1273.07 62.7008 1272.44 62.5227 1271.73 62.5227C1271.03 62.5227 1270.39 62.7008 1269.82 63.0568C1269.25 63.4129 1268.8 63.9375 1268.46 64.6307C1268.13 65.3239 1267.96 66.1742 1267.96 67.1818C1267.96 68.1894 1268.13 69.0398 1268.46 69.733C1268.8 70.4261 1269.25 70.9508 1269.82 71.3068C1270.39 71.6629 1271.03 71.8409 1271.73 71.8409C1272.44 71.8409 1273.07 71.6629 1273.64 71.3068C1274.21 70.9508 1274.67 70.4261 1275 69.733C1275.34 69.0398 1275.5 68.1894 1275.5 67.1818ZM1288.46 61.3636V73H1287.1L1280.76 63.8636H1280.65V73H1279.24V61.3636H1280.6L1286.96 70.5227H1287.08V61.3636H1288.46ZM1290.65 62.6136V61.3636H1299.38V62.6136H1295.72V73H1294.31V62.6136H1290.65ZM1300.67 73H1299.19L1303.46 61.3636H1304.92L1309.19 73H1307.71L1304.24 63.2045H1304.14L1300.67 73ZM1301.21 68.4545H1307.17V69.7045H1301.21V68.4545ZM1319.82 65H1318.41C1318.33 64.5947 1318.18 64.2386 1317.97 63.9318C1317.77 63.625 1317.52 63.3674 1317.22 63.1591C1316.93 62.947 1316.61 62.7879 1316.25 62.6818C1315.9 62.5758 1315.52 62.5227 1315.14 62.5227C1314.43 62.5227 1313.79 62.7008 1313.22 63.0568C1312.65 63.4129 1312.2 63.9375 1311.87 64.6307C1311.53 65.3239 1311.37 66.1742 1311.37 67.1818C1311.37 68.1894 1311.53 69.0398 1311.87 69.733C1312.2 70.4261 1312.65 70.9508 1313.22 71.3068C1313.79 71.6629 1314.43 71.8409 1315.14 71.8409C1315.52 71.8409 1315.9 71.7879 1316.25 71.6818C1316.61 71.5758 1316.93 71.4186 1317.22 71.2102C1317.52 70.9981 1317.77 70.7386 1317.97 70.4318C1318.18 70.1212 1318.33 69.7652 1318.41 69.3636H1319.82C1319.71 69.9583 1319.52 70.4905 1319.24 70.9602C1318.96 71.4299 1318.61 71.8295 1318.19 72.1591C1317.78 72.4848 1317.31 72.733 1316.79 72.9034C1316.28 73.0739 1315.72 73.1591 1315.14 73.1591C1314.15 73.1591 1313.26 72.9167 1312.49 72.4318C1311.72 71.947 1311.11 71.2576 1310.67 70.3636C1310.22 69.4697 1310 68.4091 1310 67.1818C1310 65.9545 1310.22 64.8939 1310.67 64C1311.11 63.1061 1311.72 62.4167 1312.49 61.9318C1313.26 61.447 1314.15 61.2045 1315.14 61.2045C1315.72 61.2045 1316.28 61.2898 1316.79 61.4602C1317.31 61.6307 1317.78 61.8807 1318.19 62.2102C1318.61 62.536 1318.96 62.9337 1319.24 63.4034C1319.52 63.8693 1319.71 64.4015 1319.82 65ZM1321.46 62.6136V61.3636H1330.19V62.6136H1326.53V73H1325.12V62.6136H1321.46Z" fill="black"/>
<g clip-path="url(#clip0_522_2572)">
<path d="M682.852 29.5917C680.941 28.8942 678.97 28.6288 676.946 28.7438C676.131 28.7861 675.311 28.8237 674.505 28.9294C673.366 29.0797 672.225 29.2394 671.107 29.486C668.378 30.0896 665.755 30.975 663.321 32.3912C661.908 33.2109 660.531 34.0681 659.226 35.0522C657.882 36.0644 656.628 37.1659 655.498 38.4107C654.498 39.5122 653.587 40.6747 652.807 41.9406C652.027 43.2112 651.362 44.5358 650.937 45.9708C650.89 46.1352 650.857 46.2245 651.085 46.2902C653.295 46.9056 655.545 47.1968 658.093 47.2532C658.465 47.2226 659.092 47.1944 659.716 47.1169C660.717 46.9972 661.72 46.8727 662.711 46.6942C664.632 46.3489 666.473 45.7266 668.246 44.9139C670.069 44.0755 671.783 43.0445 673.413 41.8749C674.853 40.8415 676.225 39.7259 677.491 38.4929C678.205 37.7977 678.907 37.0931 679.571 36.351C680.163 35.691 680.729 35.0029 681.246 34.2795C682.16 32.9972 682.681 31.5316 683.068 30.0144C683.13 29.7843 683.083 29.6809 682.852 29.5964V29.5917ZM679.748 32.0342C679.221 32.7576 678.679 33.4669 678.136 34.1785C677.902 34.4862 677.66 34.7915 677.394 35.0733C676.732 35.7732 676.084 36.4919 675.379 37.1448C674.233 38.2017 673.014 39.1716 671.706 40.0312C669.627 41.3934 667.408 42.4785 665.076 43.3216C663.5 43.89 661.886 44.3409 660.221 44.5781C659.319 44.7049 658.411 44.7895 657.502 44.8811C657.025 44.9257 656.543 44.9398 656.067 44.9656L655.989 44.8646C656.085 44.7402 656.161 44.5828 656.287 44.4982C657.581 43.6434 658.85 42.7391 660.191 41.9712C662.873 40.4422 665.6 38.9884 668.308 37.5041C668.573 37.3585 668.831 37.2058 669.08 37.032C664.425 39.0824 659.794 41.1938 655.012 42.974C657.936 39.0119 661.553 35.8883 666.025 33.8004C670.485 31.7172 675.154 30.6932 680.128 31.1699C680.128 31.5246 679.931 31.7829 679.75 32.0319L679.748 32.0342Z" fill="url(#paint0_linear_522_2572)"/>
<path d="M653.136 38.1969C653.666 36.4073 654.289 34.6294 655.179 32.9643C655.799 31.8017 656.454 30.6532 657.182 29.5588C657.779 28.664 658.474 27.8279 659.183 27.0176C659.796 26.3177 660.461 25.6601 661.151 25.0377C662.218 24.0772 663.375 23.2411 664.637 22.5435C666.518 21.5055 668.5 20.7375 670.59 20.2443C671.025 20.1409 671.473 20.0892 672 20.0023C672.084 20.6787 672.206 21.3152 672.234 21.9587C672.324 23.8611 671.92 25.686 671.295 27.4685C671.262 27.5625 671.173 27.6776 671.086 27.7011C670.327 27.9124 669.564 28.105 668.749 28.3187C669.616 26.3952 669.975 24.3942 670.184 22.2687C669.721 22.4425 669.324 22.5811 668.937 22.7432C667.333 23.4102 665.806 24.2228 664.397 25.2421C663.298 26.0359 662.236 26.8744 661.262 27.8232C660.191 28.866 659.228 29.9956 658.401 31.238C657.61 32.4264 656.933 33.6735 656.454 35.024C656.428 35.0968 656.398 35.1766 656.344 35.226C655.273 36.2218 654.199 37.2152 653.136 38.1993V38.1969Z" fill="url(#paint1_linear_522_2572)"/>
<path d="M634.375 69.4404H627.057C629.175 70.6828 630.18 73.9732 630.18 79.1518C630.18 87.1418 629.464 89.0817 625.14 89.2602C625.006 89.2649 624.865 89.2696 624.725 89.2719H624.685C624.588 89.2743 624.492 89.2743 624.393 89.2743C620.854 89.2743 620.753 88.3255 620.753 85.9816V69.438H609.283V85.9322C609.283 87.7759 607.887 89.2743 606.091 89.2743H603V89.9742H629.332C638.41 89.9742 643.647 85.486 643.647 79.4501C643.647 74.5086 639.469 71.0468 634.375 69.4404ZM626.392 50.0221H604.247V50.6704H606.939C608.486 50.6704 609.283 51.2716 609.283 52.716V67.3149H620.753V50.668H624.992C627.289 50.668 628.832 52.6643 628.832 58.9985C628.832 63.4632 628.614 66.1241 627.339 67.3149H633.999C637.865 65.7672 640.653 62.9324 640.653 59.1981C640.653 53.2139 634.07 50.0198 626.387 50.0198L626.392 50.0221Z" fill="black"/>
<path d="M687.665 50.7479H686.768C684.424 50.7479 681.232 52.5422 681.232 58.0285V89.9483H671.805L653.601 55.8843C653.601 55.8843 653.601 80.0232 653.551 80.4717C653.551 86.0591 655.797 89.3001 659.486 89.3001H660.884V89.9483H646.919V89.3001H648.516C650.461 89.3001 652.905 86.0074 652.905 80.1735V55.5343C652.905 52.3426 650.313 50.6962 648.516 50.6962H647.668V50.048H665.722L680.534 78.2265V57.9769C680.534 53.538 677.941 50.7455 675.398 50.7455H673.202V50.048H687.667V50.7455L687.665 50.7479Z" fill="black"/>
<path d="M720.613 69.4639H713.295C715.413 70.7063 716.419 73.9967 716.419 79.1753C716.419 87.1653 715.702 89.1052 711.378 89.2837C711.245 89.2884 711.104 89.2931 710.963 89.2954H710.923C710.827 89.2978 710.73 89.2978 710.632 89.2978C707.092 89.2978 706.991 88.349 706.991 86.0051V69.4615H695.521V85.9557C695.521 87.7994 694.126 89.2978 692.329 89.2978H689.238V89.9977H715.571C724.648 89.9977 729.885 85.5095 729.885 79.4736C729.885 74.5321 725.707 71.0703 720.613 69.4639ZM712.63 50.048H690.485V50.6962H693.177C694.725 50.6962 695.521 51.2974 695.521 52.7418V67.3407H706.991V50.6939H711.23C713.527 50.6939 715.07 52.6902 715.07 59.0243C715.07 63.489 714.852 66.15 713.577 67.3407H720.237C724.103 65.793 726.891 62.9582 726.891 59.224C726.891 53.2397 720.308 50.0456 712.626 50.0456L712.63 50.048Z" fill="black"/>
</g>
<path d="M852.773 64.2727C852.705 63.697 852.428 63.25 851.943 62.9318C851.458 62.6136 850.864 62.4545 850.159 62.4545C849.644 62.4545 849.193 62.5379 848.807 62.7045C848.424 62.8712 848.125 63.1004 847.909 63.392C847.697 63.6837 847.591 64.0152 847.591 64.3864C847.591 64.697 847.665 64.964 847.812 65.1875C847.964 65.4072 848.157 65.5909 848.392 65.7386C848.627 65.8826 848.873 66.0019 849.131 66.0966C849.388 66.1875 849.625 66.2614 849.841 66.3182L851.023 66.6364C851.326 66.7159 851.663 66.8258 852.034 66.9659C852.409 67.1061 852.767 67.2973 853.108 67.5398C853.453 67.7784 853.737 68.0852 853.96 68.4602C854.184 68.8352 854.295 69.2955 854.295 69.8409C854.295 70.4697 854.131 71.0379 853.801 71.5455C853.475 72.053 852.998 72.4564 852.369 72.7557C851.744 73.0549 850.985 73.2045 850.091 73.2045C849.258 73.2045 848.536 73.0701 847.926 72.8011C847.32 72.5322 846.843 72.1572 846.494 71.6761C846.15 71.1951 845.955 70.6364 845.909 70H847.364C847.402 70.4394 847.549 70.803 847.807 71.0909C848.068 71.375 848.398 71.5871 848.795 71.7273C849.197 71.8636 849.629 71.9318 850.091 71.9318C850.629 71.9318 851.112 71.8447 851.54 71.6705C851.968 71.4924 852.307 71.2462 852.557 70.9318C852.807 70.6136 852.932 70.2424 852.932 69.8182C852.932 69.4318 852.824 69.1174 852.608 68.875C852.392 68.6326 852.108 68.4356 851.756 68.2841C851.403 68.1326 851.023 68 850.614 67.8864L849.182 67.4773C848.273 67.2159 847.553 66.8428 847.023 66.358C846.492 65.8731 846.227 65.2386 846.227 64.4545C846.227 63.803 846.403 63.2348 846.756 62.75C847.112 62.2614 847.589 61.8826 848.188 61.6136C848.79 61.3409 849.462 61.2045 850.205 61.2045C850.955 61.2045 851.621 61.339 852.205 61.608C852.788 61.8731 853.25 62.2367 853.591 62.6989C853.936 63.161 854.117 63.6856 854.136 64.2727H852.773ZM866.43 67.1818C866.43 68.4091 866.209 69.4697 865.766 70.3636C865.322 71.2576 864.714 71.947 863.942 72.4318C863.169 72.9167 862.286 73.1591 861.294 73.1591C860.302 73.1591 859.419 72.9167 858.646 72.4318C857.874 71.947 857.266 71.2576 856.822 70.3636C856.379 69.4697 856.158 68.4091 856.158 67.1818C856.158 65.9545 856.379 64.8939 856.822 64C857.266 63.1061 857.874 62.4167 858.646 61.9318C859.419 61.447 860.302 61.2045 861.294 61.2045C862.286 61.2045 863.169 61.447 863.942 61.9318C864.714 62.4167 865.322 63.1061 865.766 64C866.209 64.8939 866.43 65.9545 866.43 67.1818ZM865.067 67.1818C865.067 66.1742 864.898 65.3239 864.561 64.6307C864.228 63.9375 863.775 63.4129 863.203 63.0568C862.635 62.7008 861.999 62.5227 861.294 62.5227C860.589 62.5227 859.951 62.7008 859.379 63.0568C858.811 63.4129 858.358 63.9375 858.021 64.6307C857.688 65.3239 857.521 66.1742 857.521 67.1818C857.521 68.1894 857.688 69.0398 858.021 69.733C858.358 70.4261 858.811 70.9508 859.379 71.3068C859.951 71.6629 860.589 71.8409 861.294 71.8409C861.999 71.8409 862.635 71.6629 863.203 71.3068C863.775 70.9508 864.228 70.4261 864.561 69.733C864.898 69.0398 865.067 68.1894 865.067 67.1818ZM868.8 73V61.3636H870.209V71.75H875.618V73H868.8ZM885.436 61.3636H886.845V69.0682C886.845 69.8636 886.658 70.5739 886.283 71.1989C885.911 71.8201 885.387 72.3106 884.709 72.6705C884.031 73.0265 883.235 73.2045 882.322 73.2045C881.41 73.2045 880.614 73.0265 879.936 72.6705C879.258 72.3106 878.732 71.8201 878.357 71.1989C877.985 70.5739 877.8 69.8636 877.8 69.0682V61.3636H879.209V68.9545C879.209 69.5227 879.334 70.0284 879.584 70.4716C879.834 70.911 880.19 71.2576 880.652 71.5114C881.118 71.7614 881.675 71.8864 882.322 71.8864C882.97 71.8864 883.527 71.7614 883.993 71.5114C884.459 71.2576 884.815 70.911 885.061 70.4716C885.311 70.0284 885.436 69.5227 885.436 68.9545V61.3636ZM889.023 62.6136V61.3636H897.75V62.6136H894.091V73H892.682V62.6136H889.023ZM901.334 61.3636V73H899.925V61.3636H901.334ZM913.977 67.1818C913.977 68.4091 913.756 69.4697 913.312 70.3636C912.869 71.2576 912.261 71.947 911.489 72.4318C910.716 72.9167 909.833 73.1591 908.841 73.1591C907.848 73.1591 906.966 72.9167 906.193 72.4318C905.42 71.947 904.813 71.2576 904.369 70.3636C903.926 69.4697 903.705 68.4091 903.705 67.1818C903.705 65.9545 903.926 64.8939 904.369 64C904.813 63.1061 905.42 62.4167 906.193 61.9318C906.966 61.447 907.848 61.2045 908.841 61.2045C909.833 61.2045 910.716 61.447 911.489 61.9318C912.261 62.4167 912.869 63.1061 913.312 64C913.756 64.8939 913.977 65.9545 913.977 67.1818ZM912.614 67.1818C912.614 66.1742 912.445 65.3239 912.108 64.6307C911.775 63.9375 911.322 63.4129 910.75 63.0568C910.182 62.7008 909.545 62.5227 908.841 62.5227C908.136 62.5227 907.498 62.7008 906.926 63.0568C906.358 63.4129 905.905 63.9375 905.568 64.6307C905.235 65.3239 905.068 66.1742 905.068 67.1818C905.068 68.1894 905.235 69.0398 905.568 69.733C905.905 70.4261 906.358 70.9508 906.926 71.3068C907.498 71.6629 908.136 71.8409 908.841 71.8409C909.545 71.8409 910.182 71.6629 910.75 71.3068C911.322 70.9508 911.775 70.4261 912.108 69.733C912.445 69.0398 912.614 68.1894 912.614 67.1818ZM925.574 61.3636V73H924.21L917.869 63.8636H917.756V73H916.347V61.3636H917.71L924.074 70.5227H924.188V61.3636H925.574ZM934.757 64.2727C934.689 63.697 934.412 63.25 933.928 62.9318C933.443 62.6136 932.848 62.4545 932.143 62.4545C931.628 62.4545 931.178 62.5379 930.791 62.7045C930.409 62.8712 930.109 63.1004 929.893 63.392C929.681 63.6837 929.575 64.0152 929.575 64.3864C929.575 64.697 929.649 64.964 929.797 65.1875C929.948 65.4072 930.142 65.5909 930.376 65.7386C930.611 65.8826 930.857 66.0019 931.115 66.0966C931.373 66.1875 931.609 66.2614 931.825 66.3182L933.007 66.6364C933.31 66.7159 933.647 66.8258 934.018 66.9659C934.393 67.1061 934.751 67.2973 935.092 67.5398C935.437 67.7784 935.721 68.0852 935.945 68.4602C936.168 68.8352 936.28 69.2955 936.28 69.8409C936.28 70.4697 936.115 71.0379 935.786 71.5455C935.46 72.053 934.982 72.4564 934.354 72.7557C933.729 73.0549 932.969 73.2045 932.075 73.2045C931.242 73.2045 930.52 73.0701 929.911 72.8011C929.304 72.5322 928.827 72.1572 928.479 71.6761C928.134 71.1951 927.939 70.6364 927.893 70H929.348C929.386 70.4394 929.534 70.803 929.791 71.0909C930.053 71.375 930.382 71.5871 930.78 71.7273C931.181 71.8636 931.613 71.9318 932.075 71.9318C932.613 71.9318 933.096 71.8447 933.524 71.6705C933.952 71.4924 934.291 71.2462 934.541 70.9318C934.791 70.6136 934.916 70.2424 934.916 69.8182C934.916 69.4318 934.808 69.1174 934.592 68.875C934.376 68.6326 934.092 68.4356 933.74 68.2841C933.388 68.1326 933.007 68 932.598 67.8864L931.166 67.4773C930.257 67.2159 929.537 66.8428 929.007 66.358C928.477 65.8731 928.212 65.2386 928.212 64.4545C928.212 63.803 928.388 63.2348 928.74 62.75C929.096 62.2614 929.573 61.8826 930.172 61.6136C930.774 61.3409 931.446 61.2045 932.189 61.2045C932.939 61.2045 933.606 61.339 934.189 61.608C934.772 61.8731 935.234 62.2367 935.575 62.6989C935.92 63.161 936.102 63.6856 936.121 64.2727H934.757Z" fill="black"/>
<path d="M953.469 69.5306L948.469 64.5306C948.329 64.3897 948.249 64.1986 948.249 63.9994C948.249 63.8001 948.329 63.609 948.469 63.4681C948.61 63.3272 948.801 63.2481 949.001 63.2481C949.2 63.2481 949.391 63.3272 949.532 63.4681L954 67.9375L958.469 63.4694C958.539 63.3996 958.622 63.3443 958.713 63.3065C958.804 63.2688 958.902 63.2493 959.001 63.2493C959.099 63.2493 959.197 63.2688 959.288 63.3065C959.379 63.3443 959.462 63.3996 959.532 63.4694C959.602 63.5391 959.657 63.622 959.695 63.7131C959.733 63.8043 959.752 63.902 959.752 64.0006C959.752 64.0993 959.733 64.197 959.695 64.2881C959.657 64.3793 959.602 64.4621 959.532 64.5319L954.532 69.5319C954.462 69.6017 954.379 69.6571 954.288 69.6948C954.197 69.7326 954.099 69.752 954 69.7518C953.902 69.7517 953.804 69.7321 953.713 69.6942C953.622 69.6562 953.539 69.6006 953.469 69.5306Z" fill="black"/>
<defs>
<linearGradient id="paint0_linear_522_2572" x1="650.902" y1="37.9832" x2="683.094" y2="37.9832" gradientUnits="userSpaceOnUse">
<stop stop-color="#DFAE32"/>
<stop offset="0.17" stop-color="#F0D296"/>
<stop offset="0.49" stop-color="#E0B037"/>
<stop offset="0.73" stop-color="#F2D59F"/>
<stop offset="1" stop-color="#E0B035"/>
</linearGradient>
<linearGradient id="paint1_linear_522_2572" x1="653.136" y1="29.0985" x2="672.248" y2="29.0985" gradientUnits="userSpaceOnUse">
<stop stop-color="#DFAE32"/>
<stop offset="0.17" stop-color="#F0D296"/>
<stop offset="0.49" stop-color="#E0B037"/>
<stop offset="0.73" stop-color="#F2D59F"/>
<stop offset="1" stop-color="#E0B035"/>
</linearGradient>
<clipPath id="clip0_522_2572">
<rect width="126.885" height="70" fill="white" transform="translate(603 20)"/>
</clipPath>
</defs>
</svg>